<svg width="72" height="72" viewBox="0 0 72 72" fill="none" xmlns="http://www.w3.org/2000/svg">
<g clip-path="url(#clip0_116071_7520)">
<ellipse cx="21.0278" cy="21.028" rx="13.8278" ry="13.8278" fill="#D9D9D9" fill-opacity="0.2"/>
<circle cx="2.5" cy="2.5" r="2.5" transform="matrix(-1 0 0 1 18.6777 15.2932)" fill="#25F4EE"/>
<path d="M47.8447 59.2024C47.8447 61.1354 49.4117 62.7024 51.3447 62.7024C53.2777 62.7024 54.8447 61.1354 54.8447 59.2024C54.8447 57.2694 53.2777 55.7024 51.3447 55.7024C49.4117 55.7024 47.8447 57.2694 47.8447 59.2024Z" fill="#FF949B"/>
<path d="M25.9666 25.4781L8.04708 29.934C7.44899 30.0828 7.08471 30.6881 7.23344 31.2862L14.5676 60.7779C14.7163 61.376 15.3217 61.7403 15.9198 61.5915L34.3761 56.5466C34.45 56.5263 34.4905 56.4738 34.4747 56.3988C34.037 54.3292 26.166 25.4285 25.9666 25.4781Z" fill="#5CD6D2"/>
<path d="M42.7189 49.9069L57.3249 52.4765C57.9319 52.5833 58.5105 52.1778 58.6173 51.5709L64.7827 16.5281C64.8895 15.9211 64.484 15.3425 63.8771 15.2357L49.271 12.6661C49.1322 12.6417 48.9998 12.7345 48.9754 12.8733L42.5117 49.6113C42.4873 49.7501 42.58 49.8825 42.7189 49.9069Z" fill="#5CD6D2"/>
<path d="M49.1218 18.0903C49.1509 17.939 49.2972 17.8399 49.4485 17.869L59.421 19.7865C59.5723 19.8156 59.6713 19.9619 59.6422 20.1132L59.1734 22.5511C59.1443 22.7024 58.9981 22.8014 58.8468 22.7724L48.8743 20.8548C48.723 20.8257 48.6239 20.6795 48.653 20.5282L49.1218 18.0903Z" fill="white"/>
<path d="M34.3879 53.2643C44.4956 53.2643 52.6894 45.0707 52.6894 34.9635C52.6894 24.8562 44.4956 16.6627 34.3879 16.6627C24.2803 16.6627 16.0864 24.8562 16.0864 34.9635C16.0864 45.0707 24.2803 53.2643 34.3879 53.2643Z" fill="#FF949B"/>
<path d="M33.7003 53.2518L26.0581 25.5896C26.0208 25.4547 25.8818 25.3749 25.7465 25.4109L17.6435 27.5656C16.6425 29.8277 16.0864 32.3306 16.0864 34.9635C16.0864 44.8405 23.9113 52.8902 33.7003 53.2518Z" fill="#223E70"/>
<path d="M44.4188 50.2728L42.7189 49.9737C42.58 49.9493 42.4873 49.8169 42.5117 49.6781L47.3702 22.0636C50.658 25.3721 52.6894 29.9308 52.6894 34.9635C52.6894 41.3674 49.4002 47.0026 44.4188 50.2728Z" fill="#223E70"/>
<path fill-rule="evenodd" clip-rule="evenodd" d="M42.157 46.2434C41.9053 46.4211 41.558 46.3601 41.3685 46.117C37.6918 41.401 31.0119 40.2512 25.9698 43.4664C25.71 43.6321 25.3623 43.5735 25.1845 43.3218L22.0517 38.8863C21.8739 38.6346 21.9345 38.285 22.1914 38.1149C30.1907 32.8203 40.9505 34.6724 46.7189 42.3369C46.9042 42.5831 46.8444 42.9329 46.5927 43.1106L42.157 46.2434Z" fill="#FFEFC7"/>
</g>
<defs>
<clipPath id="clip0_116071_7520">
<rect width="72" height="72" fill="white"/>
</clipPath>
</defs>
</svg>
