<svg preserveAspectRatio="none" width="100%" height="100%" overflow="visible" style="display: block;" viewBox="0 0 60.75 60.75" fill="none" xmlns="http://www.w3.org/2000/svg">
<g id="part1">
<mask id="path-1-outside-1_236_4521" maskUnits="userSpaceOnUse" x="-0.625" y="-0.625" width="62" height="62" fill="black">
<rect fill="white" x="-0.625" y="-0.625" width="62" height="62"/>
<path d="M60.375 30.375C60.375 46.9435 46.9435 60.375 30.375 60.375C13.8065 60.375 0.375 46.9435 0.375 30.375C0.375 13.8065 13.8065 0.375 30.375 0.375C46.9435 0.375 60.375 13.8065 60.375 30.375ZM7.875 30.375C7.875 42.8014 17.9486 52.875 30.375 52.875C42.8014 52.875 52.875 42.8014 52.875 30.375C52.875 17.9486 42.8014 7.875 30.375 7.875C17.9486 7.875 7.875 17.9486 7.875 30.375Z"/>
</mask>
<path d="M60.375 30.375C60.375 46.9435 46.9435 60.375 30.375 60.375C13.8065 60.375 0.375 46.9435 0.375 30.375C0.375 13.8065 13.8065 0.375 30.375 0.375C46.9435 0.375 60.375 13.8065 60.375 30.375ZM7.875 30.375C7.875 42.8014 17.9486 52.875 30.375 52.875C42.8014 52.875 52.875 42.8014 52.875 30.375C52.875 17.9486 42.8014 7.875 30.375 7.875C17.9486 7.875 7.875 17.9486 7.875 30.375Z" fill="var(--fill-0, #2A9C49)"/>
<path d="M60.375 30.375C60.375 46.9435 46.9435 60.375 30.375 60.375C13.8065 60.375 0.375 46.9435 0.375 30.375C0.375 13.8065 13.8065 0.375 30.375 0.375C46.9435 0.375 60.375 13.8065 60.375 30.375ZM7.875 30.375C7.875 42.8014 17.9486 52.875 30.375 52.875C42.8014 52.875 52.875 42.8014 52.875 30.375C52.875 17.9486 42.8014 7.875 30.375 7.875C17.9486 7.875 7.875 17.9486 7.875 30.375Z" stroke="var(--stroke-0, white)" stroke-width="0.75" mask="url(#path-1-outside-1_236_4521)"/>
</g>
</svg>
