<svg preserveAspectRatio="none" width="100%" height="100%" overflow="visible" style="display: block;" viewBox="0 0 2.5 11.25" fill="none" xmlns="http://www.w3.org/2000/svg">
<g id="icon">
<path d="M1.25 6.875C0.559644 6.875 1.18835e-07 6.31536 1.49012e-07 5.625C1.79188e-07 4.93464 0.559644 4.375 1.25 4.375C1.94036 4.375 2.5 4.93464 2.5 5.625C2.5 6.31536 1.94036 6.875 1.25 6.875Z" fill="var(--fill-0, #6D6E70)"/>
<path d="M1.25 11.25C0.559644 11.25 -3.01764e-08 10.6904 0 10C3.01764e-08 9.30964 0.559644 8.75 1.25 8.75C1.94036 8.75 2.5 9.30964 2.5 10C2.5 10.6904 1.94036 11.25 1.25 11.25Z" fill="var(--fill-0, #6D6E70)"/>
<path d="M1.25 2.5C0.559645 2.5 5.88229e-07 1.94036 6.18405e-07 1.25C6.48582e-07 0.559644 0.559645 -3.01764e-08 1.25 0C1.94036 3.01764e-08 2.5 0.559644 2.5 1.25C2.5 1.94036 1.94036 2.5 1.25 2.5Z" fill="var(--fill-0, #6D6E70)"/>
</g>
</svg>
