<svg xmlns="http://www.w3.org/2000/svg" width="48" height="48" viewBox="0 0 48 48" fill="none" stroke="currentColor" stroke-width="3"><path d="M34.504 36.36v2.787a3.43 3.43 0 0 1-3.428 3.429H18.536a3.43 3.43 0 0 1-3.429-3.429V36.36m19.396 0h1.467a3.43 3.43 0 0 0 3.429-3.428v-4.255m-4.896 7.683H15.107M39.4 28.677h.549a3.43 3.43 0 0 0 3.429-3.429V8.853a3.43 3.43 0 0 0-3.428-3.429H7.623a3 3 0 0 0-3 3v16.824a3.43 3.43 0 0 0 3.429 3.429h.75m30.598 0H8.802m0 0v4.255a3.43 3.43 0 0 0 3.429 3.428h2.877" stroke-linejoin="round"/><path d="M33.881 16.685h-5.8m8.801 5.611h-8.801m-16.406 0h10.096a.56.56 0 0 0 .56-.56V11.641a.56.56 0 0 0-.56-.56H11.675a.56.56 0 0 0-.56.56v10.096a.56.56 0 0 0 .56.56z" stroke-linecap="round"/></svg>