<svg xmlns="http://www.w3.org/2000/svg" width="48" height="48" viewBox="0 0 48 48" fill="currentColor" fill-rule="evenodd" stroke="currentColor"><path d="M21.712 22.422c-4.137 0-7.491 3.354-7.491 7.492s3.354 7.492 7.492 7.492H37.49c3.853 0 6.976-3.123 6.976-6.976v-2.728a4.25 4.25 0 0 0-4.248-4.248 1.5 1.5 0 1 1 0-3 7.25 7.25 0 0 1 7.248 7.248v2.728a9.98 9.98 0 0 1-9.976 9.976H21.712c-5.794 0-10.491-4.697-10.491-10.492s4.697-10.492 10.492-10.492h2.669a1.5 1.5 0 1 1 0 3h-2.669zm4.57 3.156c4.137 0 7.492-3.354 7.492-7.492s-3.354-7.492-7.492-7.492H10.505c-3.852 0-6.975 3.123-6.975 6.976v2.728a4.25 4.25 0 0 0 4.248 4.248 1.5 1.5 0 1 1 0 3A7.25 7.25 0 0 1 .53 20.298V17.57a9.98 9.98 0 0 1 9.975-9.975h15.777c5.794 0 10.492 4.697 10.492 10.492s-4.697 10.492-10.492 10.492h-2.669a1.5 1.5 0 1 1 0-3h2.669z"/></svg>