<svg xmlns="http://www.w3.org/2000/svg" width="48" height="48" viewBox="0 0 48 48" fill="none"><path d="M12.271 37.273l8.811-26.545h5.836l8.811 26.545h-3.577l-3.389-10.467h-9.526l-3.389 10.467h-3.577zm11.71-25.265L20.14 23.944h7.719l-3.878-11.936zM7.855 5.61c-.284 1.161-.633 2.587-1.547 3.465s-2.4 1.212-3.609 1.485c-1.1.248-1.971.444-1.971.95s.871.702 1.971.95c1.209.273 2.695.608 3.609 1.485s1.263 2.304 1.547 3.464c.258 1.056.463 1.892.99 1.892s.731-.836.99-1.892c.284-1.161.633-2.587 1.547-3.464s2.4-1.212 3.609-1.485c1.1-.248 1.971-.444 1.971-.95s-.871-.702-1.971-.95c-1.209-.273-2.695-.608-3.609-1.485S10.118 6.771 9.834 5.61c-.258-1.056-.463-1.892-.99-1.892s-.731.836-.99 1.892z" fill="currentColor"/><path d="M15.402 4.875h24.352a3.43 3.43 0 0 1 3.429 3.429v7.403M4.848 32.212v7.575a3.43 3.43 0 0 0 3.429 3.429h31.473a3.43 3.43 0 0 0 3.428-3.429v-7.312m.108-11.18v4.527M4.848 21.295v4.527" stroke="currentColor" stroke-width="3" stroke-linecap="round"/></svg>