<svg xmlns="http://www.w3.org/2000/svg" width="48" height="48" viewBox="0 0 48 48" fill="none"><path d="M30.91 28.316a8.52 8.52 0 0 0 1.483-4.815c0-4.758-3.89-8.615-8.689-8.615s-8.689 3.857-8.689 8.615 3.89 8.615 8.689 8.615a8.7 8.7 0 0 0 7.206-3.8zm0 0c.521.796 1.483 1.621 1.483 1.621m0 13.647h-6.965c-11.141 0-20.172-8.954-20.172-20v-1.162c0-10.404 8.507-18.838 19-18.838s19 8.511 19 18.915c0 3.776-1.124 8.189-4.909 8.615-1.812.204-4.275-.188-5.954-1.176m0 0V14.887" stroke="currentColor" stroke-width="3" stroke-linecap="round"/></svg>