<svg xmlns="http://www.w3.org/2000/svg" width="48" height="48" viewBox="0 0 48 48" fill="none" stroke="currentColor" stroke-width="3"><circle cx="23.987" cy="24.571" r="18"/><g stroke-linecap="round"><path d="M6.651 17.677c-.334-.228-.652-.49-.948-.786a6.55 6.55 0 0 1 0-9.26 6.55 6.55 0 0 1 9.26 0c.265.265.502.546.711.841m25.659 9.204c.334-.228.652-.49.948-.786a6.55 6.55 0 0 0 0-9.26 6.55 6.55 0 0 0-9.26 0 6.69 6.69 0 0 0-.712.841"/><path d="M23.993 15.578v9l6 6" stroke-linejoin="round"/></g></svg>