<svg xmlns="http://www.w3.org/2000/svg" width="48" height="48" viewBox="0 0 48 48" fill="none" stroke="currentColor" stroke-width="3"><path d="M23.978 4.504c.004-.002.012-.004.021-.004s.017.002.022.004l.628-1.362-.628 1.362 17.397 8.023-17.397 8.023.628 1.362-.628-1.362c-.004.002-.012.004-.022.004s-.017-.002-.021-.004L6.582 12.527l17.396-8.023zM6.017 18.239l14.978 7.187V43.5c-.008-.001-.013-.002-.021-.006L5.995 36.717V18.233a.06.06 0 0 1 .022.006zM26.995 43.5V25.426l14.978-7.187-.649-1.352.649 1.352c.018-.006.02-.006.022-.006v18.484l-14.979 6.776-.021.006z"/></svg>