<svg xmlns="http://www.w3.org/2000/svg" width="48" height="48" viewBox="0 0 48 48" fill="none" stroke="currentColor" stroke-width="3"><path d="M5.998 38.87c-1.182-1.791-.896-4.174.675-5.636l23.03-21.42a.23.23 0 0 1 .255-.04l.55.258c6.862 3.222 10.891 10.49 10.005 18.02h0c-.011.093-.074.171-.161.202L11.131 40.592c-1.903.673-4.021-.037-5.133-1.723h0z"/><path d="M24.869 36.928a5.21 5.21 0 0 1-3.266 6.603A5.21 5.21 0 0 1 15 40.266m0-24.903l-6-1.5m13.5-4.5l-1.5-4.5m15 4.5l3-4.5" stroke-linecap="round"/></svg>