<svg xmlns="http://www.w3.org/2000/svg" width="48" height="48" viewBox="0 0 48 48" fill="none" stroke="currentColor"><path d="M24.097 12.31c.082-2.231.713-4.192 1.876-5.83C27.142 4.833 29.074 3.663 31.72 3l.055.243v.424c0 .961-.234 2.064-.697 3.277-.485 1.174-1.243 2.279-2.249 3.277-.941.879-1.812 1.461-2.582 1.724-.254.075-.602.15-1.023.217l-1.126.149z" fill="currentColor"/><path d="M24.537 15.621c-2.988 0-5.063-2.629-8.01-2.629s-9.02 2.695-9.02 12 5.392 15.3 5.996 16 1.998 2.5 4.159 2.5 4.527-1.709 6.876-1.709 5.306 1.709 7.237 1.709 2.724-.783 4.038-2.133 3.82-5.471 4.695-7.944c-1.441-.854-5.262-3.171-5.262-8.422 0-3.501 1.286-6.409 3.858-8.725-1.687-2.183-3.644-3.275-5.871-3.275-3.34 0-5.706 2.629-8.695 2.629z" stroke-width="3" stroke-linejoin="round"/></svg>