<svg width="48" height="48" viewBox="0 0 48 48" xmlns="http://www.w3.org/2000/svg" fill-rule="evenodd" clip-rule="evenodd" stroke="currentColor" stroke-width="3.5">
<path data-click="triangleUpClick" part="triangleUp" fill="transparent" d="M25.5589 6.42591C25.2287 6.07567 24.7688 5.8769 24.2875 5.87637C23.8061 5.87583 23.3458 6.07359 23.0149 6.4231L12.8771 17.1289C12.3963 17.6366 12.2639 18.3816 12.5402 19.0238C12.8165 19.6661 13.4486 20.0822 14.1477 20.0822H24.2631H34.3785C35.0769 20.0822 35.7085 19.6669 35.9852 19.0256C36.262 18.3843 36.1309 17.6399 35.6518 17.1317L25.5589 6.42591Z"/>
<path data-click="triangleDownClick" part="triangleDown" fill="currentColor" d="M34.3302 28.2853C35.0143 28.2853 35.633 28.6921 35.9041 29.3203C36.1752 29.9485 36.0468 30.6777 35.5775 31.1755L25.27 42.1088C24.9465 42.4519 24.4961 42.6466 24.0246 42.6471C23.5531 42.6477 23.1021 42.454 22.7779 42.1116L12.4246 31.1783C11.9537 30.681 11.824 29.9511 12.0947 29.3221C12.3653 28.693 12.9845 28.2853 13.6693 28.2853H23.9998H34.3302Z"/>
</svg>
