<svg width="48" height="48" viewBox="0 0 48 48" xmlns="http://www.w3.org/2000/svg" stroke-width="3.5" stroke-linejoin="round" stroke="currentColor">
<path data-click="triangleUpClick" part="triangleUp" fill="transparent" d="M25.5589 6.42591C25.2287 6.07567 24.7688 5.8769 24.2875 5.87637C23.8061 5.87583 23.3458 6.07359 23.0149 6.4231L12.8771 17.1289C12.3963 17.6366 12.2639 18.3816 12.5402 19.0238C12.8165 19.6661 13.4486 20.0822 14.1477 20.0822H24.2631H34.3785C35.0769 20.0822 35.7085 19.6669 35.9852 19.0256C36.262 18.3843 36.1309 17.6399 35.6518 17.1317L25.5589 6.42591Z"/>
<path data-click="triangleDownClick" part="triangleDown" fill="transparent" d="M25.559 41.9887C25.2288 42.339 24.7689 42.5377 24.2876 42.5383C23.8062 42.5388 23.3459 42.3411 23.015 41.9915L12.8772 31.2857C12.3964 30.7781 12.264 30.033 12.5403 29.3908C12.8167 28.7486 13.4487 28.3325 14.1478 28.3325H24.2632H34.3786C35.077 28.3325 35.7086 28.7478 35.9853 29.389C36.2621 30.0303 36.131 30.7747 35.6519 31.2829L25.559 41.9887Z"/>
</svg>
