<svg width="48" height="48" viewBox="0 0 48 48" xmlns="http://www.w3.org/2000/svg" fill-rule="evenodd" clip-rule="evenodd" stroke="currentColor" stroke-width="3.5">
<path data-click="triangleUpClick" part="triangleUp" fill="currentColor" d="M34.3302 19.714C35.0143 19.714 35.633 19.3072 35.9041 18.6791C36.1752 18.0509 36.0468 17.3217 35.5775 16.8239L25.27 5.89054C24.9465 5.54746 24.4961 5.35275 24.0246 5.35223C23.5531 5.35171 23.1021 5.54542 22.7779 5.88778L12.4246 16.8211C11.9537 17.3184 11.824 18.0482 12.0947 18.6773C12.3653 19.3064 12.9845 19.714 13.6693 19.714H23.9998H34.3302Z"/>
<path data-click="triangleDownClick" part="triangleDown" fill="transparent" d="M25.559 41.9887C25.2288 42.339 24.7689 42.5377 24.2876 42.5383C23.8062 42.5388 23.3459 42.3411 23.015 41.9915L12.8772 31.2857C12.3964 30.7781 12.264 30.033 12.5403 29.3908C12.8167 28.7486 13.4487 28.3325 14.1478 28.3325H24.2632H34.3786C35.077 28.3325 35.7086 28.7478 35.9853 29.389C36.2621 30.0303 36.131 30.7747 35.6519 31.2829L25.559 41.9887Z"/>
</svg>
