<svg width="48" height="48" viewBox="0 0 48 48" fill="none" xmlns="http://www.w3.org/2000/svg"><path d="M6.40625 38.0691L6.45775 23.9805L41.5938 24.0155L41.5842 38.0691H6.40625Z" stroke="currentColor" stroke-width="3" stroke-linejoin="round"/><path d="M11.0819 11.9383L6.45801 23.9807L41.594 24.0157L37.878 12.1192C37.4868 10.8666 36.3268 10.0137 35.0145 10.0137H13.8826C12.6406 10.0137 11.5271 10.7789 11.0819 11.9383Z" stroke="currentColor" stroke-width="3" stroke-linejoin="round"/><path d="M36.7477 41.234V36.8836H43.0755V41.234C43.0755 42.9814 41.659 44.3979 39.9116 44.3979C38.1642 44.3979 36.7477 42.9814 36.7477 41.234Z" fill="currentColor"/><path d="M4.88477 41.2403L4.89692 36.8689L11.2126 36.89V41.2403C11.2126 42.9877 9.79607 44.4043 8.04869 44.4043C6.3013 44.4043 4.88477 42.9877 4.88477 41.2403Z" fill="currentColor"/><path d="M18.1267 31.0215C18.1267 32.6783 16.7835 34.0215 15.1267 34.0215C13.4698 34.0215 12.1267 32.6783 12.1267 31.0215C12.1267 29.3646 13.4698 28.0215 15.1267 28.0215C16.7835 28.0215 18.1267 29.3646 18.1267 31.0215Z" fill="currentColor"/><path d="M36.1892 31.0215C36.1892 32.6783 34.846 34.0215 33.1892 34.0215C31.5323 34.0215 30.1892 32.6783 30.1892 31.0215C30.1892 29.3646 31.5323 28.0215 33.1892 28.0215C34.846 28.0215 36.1892 29.3646 36.1892 31.0215Z" fill="currentColor"/></svg>