<svg xmlns="http://www.w3.org/2000/svg" width="48" height="48" viewBox="0 0 48 48" fill="none"><rect x="34.5" y="43.5" width="21" height="39" rx="1.5" transform="rotate(180 34.499 43.5)" stroke="currentColor" stroke-width="3"/><path d="M24.019 8.996v27.485V8.996zM12.019 42h-3a3 3 0 0 1-3-3V9a3 3 0 0 1 3-3h3v3h-3v30h3v3zm11.98-33.004V36.5 8.996zm12 33.004h3a3 3 0 0 0 3-3V9a3 3 0 0 0-3-3h-3v3h3v30h-3v3z" fill-rule="evenodd" fill="currentColor"/><path d="M28.655 22.481l-5.968-4.409c-.99-.732-2.391-.025-2.391 1.206v8.819c0 1.231 1.401 1.938 2.391 1.206l5.968-4.409a1.5 1.5 0 0 0 0-2.413z" fill="currentColor"/></svg>