<svg width="48" height="48" viewBox="0 0 48 48" fill="none" xmlns="http://www.w3.org/2000/svg"><path d="M10.5001 4.28613H30.8455C32.7391 4.28613 34.2741 5.82116 34.2741 7.7147V34.5004C34.2741 36.394 32.7391 37.929 30.8455 37.929H10.5001M10.5001 4.28613H6.85728C4.96373 4.28613 3.42871 5.82116 3.42871 7.7147V34.5004C3.42871 36.394 4.96374 37.929 6.85728 37.929H10.5001M10.5001 4.28613V37.929" stroke="currentColor" stroke-width="3" stroke-linecap="round" stroke-linejoin="round"/><path d="M35.3916 13.9492L42.2369 16.1492C43.9626 16.7038 44.9584 18.5058 44.5098 20.262L38.7547 42.789C38.2729 44.6752 36.319 45.7822 34.4534 45.226L10.4981 38.0849" stroke="currentColor" stroke-width="3" stroke-linecap="round" stroke-linejoin="round"/><line x1="16.9795" y1="13.1387" x2="28.0768" y2="13.1387" stroke="currentColor" stroke-width="3" stroke-linecap="round"/><line x1="16.9795" y1="20.4941" x2="28.0768" y2="20.4941" stroke="currentColor" stroke-width="3" stroke-linecap="round"/></svg>