<svg width="48" height="48" viewBox="0 0 48 48" fill="none" xmlns="http://www.w3.org/2000/svg"><path d="M24 21.3999C31.1797 21.3999 37 18.4898 37 14.8999C37 11.3101 31.1797 8.3999 24 8.3999C16.8203 8.3999 11 11.3101 11 14.8999C11 18.4898 16.8203 21.3999 24 21.3999Z" stroke="currentColor" stroke-width="3" stroke-linecap="round" stroke-linejoin="round"/><path d="M11 14.8999C11 14.8999 11 20.4101 11 23.9999C11 27.5897 16.8204 30.4999 24 30.4999C31.1796 30.4999 37 27.5897 37 23.9999C37 21.8736 37 14.8999 37 14.8999" stroke="currentColor" stroke-width="3" stroke-linecap="round" stroke-linejoin="round"/><path d="M11 24C11 24 11 29.5102 11 33.1C11 36.6898 16.8204 39.6 24 39.6C31.1796 39.6 37 36.6898 37 33.1C37 30.9737 37 24 37 24" stroke="currentColor" stroke-width="3" stroke-linecap="round" stroke-linejoin="round"/></svg>