<svg xmlns="http://www.w3.org/2000/svg" width="48" height="48" viewBox="0 0 48 48" fill="none"><rect width="48" height="48" rx="1.556" fill="#7686a1"/><g fill="#fff"><path d="M28 0h-5.333v2.667h-2c-.368 0-.667.298-.667.667V6c0 .368.299.667.667.667h2v2.667h-2c-.368 0-.667.298-.667.667v2.667c0 .368.299.667.667.667h2V16h-2c-.368 0-.667.299-.667.667v2.667c0 .368.299.667.667.667h2v5.333h2.667v-2.667h2c.368 0 .667-.298.667-.667v-2.667c0-.368-.299-.667-.667-.667h-2V16h2c.368 0 .667-.299.667-.667v-2.667c0-.368-.299-.667-.667-.667h-2V9.333h2c.368 0 .667-.298.667-.667V6c0-.368-.299-.667-.667-.667h-2V2.667h2c.368 0 .667-.298.667-.667V0z"/><path fill-rule="evenodd" d="M20.667 25.333c-.368 0-.667.298-.667.667v8c0 .368.299.667.667.667h6.667c.368 0 .667-.298.667-.667v-8c0-.368-.299-.667-.667-.667h-6.667zm1.333 4c-.368 0-.667.298-.667.667v2.667c0 .368.298.667.667.667h4c.368 0 .667-.298.667-.667V30c0-.368-.298-.667-.667-.667h-4z"/></g></svg>