<svg width="48" height="48" viewBox="0 0 48 48" fill="none" xmlns="http://www.w3.org/2000/svg"><rect width="48" height="48" rx="8" fill="#017976"/><path d="M24.8004 25.0183H24.991C27.7575 25.0183 30.0002 22.7756 30.0002 20.0091C30.0002 17.2426 27.7575 14.9999 24.991 14.9999L14.7368 14.9999C12.0207 14.9999 9.81892 17.2017 9.81892 19.9177L9.81892 20.0091C9.81892 22.7756 12.0616 25.0183 14.8281 25.0183H15.1821" stroke="white" stroke-width="3" stroke-linecap="round" stroke-linejoin="round"/><path d="M32.8005 21.9811L32.9911 21.9811C35.7576 21.9811 38.0003 24.2238 38.0003 26.9903C38.0003 29.7568 35.7576 31.9995 32.9911 31.9995L22.7369 31.9995C20.0208 31.9995 17.819 29.7977 17.819 27.0816L17.819 26.9903C17.819 24.2238 20.0617 21.9811 22.8283 21.9811L23.1822 21.9811" stroke="white" stroke-width="3" stroke-linecap="round" stroke-linejoin="round"/></svg>