<svg width="48" height="48" viewBox="0 0 48 48" fill="none" xmlns="http://www.w3.org/2000/svg"><rect width="48" height="48" rx="8" fill="url(#paint0_radial_2_155)"/><path fill-rule="evenodd" clip-rule="evenodd" d="M11 23.6089C11 16.3653 16.6778 11 24 11C31.3222 11 37 16.3685 37 23.6121C37 30.8557 31.3222 36.221 24 36.221C22.6837 36.221 21.4228 36.0455 20.2365 35.7206C20.0057 35.6588 19.7587 35.6751 19.541 35.7726L16.9605 36.91C16.2845 37.2089 15.524 36.728 15.5013 35.9903L15.4297 33.6765C15.4232 33.3905 15.2932 33.124 15.082 32.9356C12.5535 30.6738 11 27.398 11 23.6089ZM19.7573 21.5169L15.6954 26.9683C15.3047 27.4918 16.0653 28.0796 16.646 27.7053L21.0088 24.9035C21.3026 24.7134 21.7106 24.7134 22.0079 24.9006L25.2402 26.9507C26.2116 27.5649 27.5944 27.3514 28.2408 26.4828L32.3063 21.0343C32.6935 20.5108 31.9329 19.9201 31.3521 20.2944L26.9894 23.0961C26.6956 23.2862 26.2876 23.2862 25.9903 23.0991L22.758 21.049C21.7866 20.4348 20.4038 20.6483 19.7573 21.5169Z" fill="white"/><defs><radialGradient id="paint0_radial_2_155" cx="0" cy="0" r="1" gradientUnits="userSpaceOnUse" gradientTransform="translate(9.24 47.7344) scale(52.3008 52.2961)"><stop stop-color="#0099FF"/><stop offset="0.6098" stop-color="#A033FF"/><stop offset="0.9348" stop-color="#FF5280"/><stop offset="1" stop-color="#FF7061"/></radialGradient></defs></svg>