<svg xmlns="http://www.w3.org/2000/svg" width="48" height="48" viewBox="0 0 48 48" fill="none"><rect width="48" height="48" rx="1.556" fill="#f0f0f0"/><path fill-rule="evenodd" d="M19.446 18.827c.161 0 .291-.131.301-.292a4.3 4.3 0 0 1 4.291-4.009c2.341 0 4.225 1.891 4.225 4.301 0 1.596-.735 2.763-2.032 3.514-1.949 1.129-4.46 3.306-4.46 6.579v1.248c0 .161.131.292.292.292h3.95c.161 0 .292-.13.292-.292v-1.248c0-.766.653-1.761 2.2-2.657 2.625-1.521 4.292-4.144 4.292-7.437 0-4.845-3.846-8.834-8.759-8.834-4.781 0-8.675 3.798-8.83 8.542-.005.161.126.292.287.292h3.95zm4.552 19.42a2.84 2.84 0 0 0 2.84-2.84 2.84 2.84 0 0 0-2.84-2.84 2.84 2.84 0 0 0-2.84 2.84 2.84 2.84 0 0 0 2.84 2.84z" fill="#bfbfbf"/></svg>