<svg xmlns="http://www.w3.org/2000/svg" width="48" height="48" viewBox="0 0 48 48" fill="none"><rect width="48" height="48" rx="1.556" fill="#224bdd"/><path d="M31.69 34.667c.13 0 .245-.087.281-.212l5.914-20.761c.053-.186-.087-.371-.281-.371h-4.472c-.135 0-.252.092-.283.223l-3.69 15.201-3.975-15.206c-.034-.128-.149-.218-.282-.218h-3.102c-.132 0-.248.089-.282.217L17.51 28.747l-3.69-15.201c-.032-.131-.149-.223-.284-.223H9.065c-.194 0-.334.186-.28.372l5.945 20.761c.036.125.15.211.28.211h4.385c.134 0 .25-.091.283-.22l3.656-14.436 3.688 14.437c.033.129.149.219.283.219h4.385z" fill="#fff"/></svg>