<svg xmlns="http://www.w3.org/2000/svg" width="48" height="48" viewBox="0 0 48 48" fill="none"><path d="M33.085 21.681l-7.273-7.273L9.83 30.389c-.301.301-.186.786.205.867.781.161 1.011 1.133.41 1.734l-1.71 1.71c-1.325 1.325-1.476 3.323-.337 4.463s3.137.988 4.462-.337l1.753-1.753c.576-.576 1.506-.346 1.646.407.07.376.535.491.823.203l16.003-16.003z" stroke="currentColor" stroke-width="3" stroke-linejoin="round"/><path d="M39.561 8.068a8.01 8.01 0 0 0-11.326 0l-3.177 3.177-2.343-2.343c-.669-.669-1.755-.669-2.424 0s-.67 1.755 0 2.424l15.874 15.874c.669.669 1.755.669 2.424 0s.669-1.755 0-2.424l-2.205-2.205 3.177-3.177a8.01 8.01 0 0 0 0-11.326z" fill="currentColor"/></svg>