<svg width="48" height="48" viewBox="0 0 48 48" fill="none" xmlns="http://www.w3.org/2000/svg"><rect width="48" height="48" rx="8" fill="#0075FA"/><path d="M26.0303 36.8425C32.2457 35.8677 37 30.4891 37 24.0001C37 16.8204 31.1797 11.0001 24 11.0001C16.8203 11.0001 11 16.8204 11 24.0001C11 30.4856 15.7491 35.8618 21.9594 36.8409V27.8686H18.6374V24.0847H21.9594C21.9594 24.0847 21.9441 21.9313 21.9594 20.9725C21.9747 20.0137 22.1632 19.0908 22.6574 18.25C23.4166 16.9477 24.5986 16.3119 26.0507 16.1324C27.2826 15.9788 28.5848 16.1184 29.8007 16.3478C29.8007 16.3478 29.798 18.5032 29.8007 19.5779C29.6904 19.5759 29.5661 19.5722 29.4327 19.5682C28.8817 19.5515 28.1765 19.5303 27.676 19.6087C26.6468 19.7676 26.0558 20.429 26.0354 21.4699C26.015 22.28 26.0252 24.0847 26.0252 24.0847H29.6478L29.0619 27.8686H26.0303V36.8425Z" fill="white"/></svg>