<svg xmlns="http://www.w3.org/2000/svg" width="48" height="48" viewBox="0 0 48 48" fill="none"><rect width="48" height="48" rx="1.556" fill="#f6ba1e"/><g fill-rule="evenodd" fill="#fff"><path d="M8.4 20.333c0-1.804 1.463-3.267 3.267-3.267h24.667c1.804 0 3.267 1.462 3.267 3.267v14a3.27 3.27 0 0 1-3.267 3.267H11.667A3.27 3.27 0 0 1 8.4 34.333v-14zm4.533 1.267v11.467h22.133V21.6H12.933z"/><path opacity=".55" d="M8.4 13.666c0-1.804 1.463-3.267 3.267-3.267h11.171c1.256 0 2.401.72 2.945 1.853l4.487 9.347H8.4v-7.933zm4.533 1.267v2.133h10.131l-1.024-2.133h-9.107z"/></g></svg>