<svg width="48" height="48" viewBox="0 0 48 48" fill="none" xmlns="http://www.w3.org/2000/svg"><rect width="48" height="48" rx="8" fill="#FFFC00"/><path d="M35.8277 30.3242L34.936 29.7893C33.1596 28.7225 31.8138 27.0663 31.1332 25.1092L33.3762 24.3613C33.5829 24.2923 33.774 24.1832 33.9386 24.0404C34.1032 23.8975 34.238 23.7236 34.3354 23.5286C34.4328 23.3337 34.4908 23.1214 34.5062 22.904C34.5215 22.6866 34.4939 22.4683 34.4249 22.2616C34.3559 22.0548 34.2469 21.8637 34.104 21.6991C33.9611 21.5345 33.7872 21.3997 33.5923 21.3023C33.3973 21.2049 33.185 21.1469 32.9676 21.1315C32.7502 21.1162 32.5319 21.1438 32.3252 21.2128L30.6392 21.7748V19.4671C30.6392 17.7066 29.9399 16.0183 28.695 14.7735C27.4502 13.5287 25.7619 12.8293 24.0015 12.8293C22.241 12.8293 20.5527 13.5287 19.3079 14.7735C18.0631 16.0183 17.3637 17.7066 17.3637 19.4671V21.7748L15.6755 21.2117C15.4688 21.1427 15.2505 21.1151 15.0331 21.1304C14.8157 21.1458 14.6034 21.2038 14.4085 21.3012C14.2135 21.3986 14.0396 21.5334 13.8967 21.698C13.7539 21.8626 13.6448 22.0537 13.5758 22.2605C13.5068 22.4672 13.4792 22.6855 13.4945 22.9029C13.5099 23.1203 13.5679 23.3326 13.6653 23.5275C13.7627 23.7225 13.8975 23.8964 14.0621 24.0393C14.2267 24.1821 14.4178 24.2912 14.6246 24.3602L16.8698 25.1092C16.1893 27.0667 14.8435 28.7234 13.0669 29.7904L12.1752 30.3253C12.0433 30.405 11.9411 30.5257 11.8841 30.6689C11.8272 30.8121 11.8186 30.9701 11.8598 31.1186C11.901 31.2671 11.9896 31.3981 12.1122 31.4916C12.2347 31.585 12.3845 31.6359 12.5386 31.6363H14.4675C14.673 31.6363 14.8744 31.6935 15.0492 31.8016C15.2239 31.9096 15.3652 32.0642 15.457 32.248L15.6457 32.6258C15.8294 32.9934 16.1119 33.3025 16.4615 33.5185C16.8111 33.7345 17.2139 33.8489 17.6248 33.8488H19.6377C20.3248 33.8488 21.0024 34.0088 21.6169 34.3162L21.9609 34.4877C22.5754 34.7952 23.253 34.9552 23.9401 34.9551H24.0629C24.7499 34.9552 25.4276 34.7952 26.042 34.4877L26.3861 34.3162C27.0005 34.0088 27.6781 33.8488 28.3652 33.8488H30.3781C30.789 33.8489 31.1918 33.7345 31.5414 33.5185C31.891 33.3025 32.1735 32.9934 32.3573 32.6258L32.5459 32.248C32.6377 32.0642 32.779 31.9096 32.9538 31.8016C33.1285 31.6935 33.33 31.6363 33.5355 31.6363H35.4643C35.6188 31.6363 35.769 31.5856 35.8919 31.4921C36.0149 31.3986 36.1038 31.2673 36.145 31.1184C36.1862 30.9696 36.1775 30.8113 36.1202 30.6678C36.0629 30.5244 35.9602 30.4037 35.8277 30.3242Z" fill="white"/><path d="M24.0628 35.7851H23.94C23.1244 35.7846 22.3199 35.5953 21.5897 35.2319L21.2462 35.0605C20.7466 34.8111 20.196 34.681 19.6376 34.6805H17.6247C17.0594 34.6823 16.5049 34.5257 16.024 34.2285C15.5431 33.9313 15.155 33.5054 14.9038 32.9989L14.7146 32.6206C14.6917 32.5747 14.6564 32.5361 14.6127 32.5091C14.569 32.4822 14.5187 32.4679 14.4674 32.4679H12.5386C12.2021 32.4684 11.8747 32.3585 11.6068 32.1549C11.3389 31.9513 11.1452 31.6654 11.0555 31.3411C10.9659 31.0168 10.9852 30.672 11.1105 30.3597C11.2358 30.0474 11.4602 29.7849 11.7492 29.6126L12.6404 29.0782C14.0026 28.2588 15.0911 27.0535 15.7678 25.615L14.364 25.1476C13.7377 24.9387 13.22 24.4895 12.9249 23.899C12.6298 23.3084 12.5814 22.6248 12.7903 21.9985C12.9992 21.3722 13.4483 20.8546 14.0389 20.5595C14.6294 20.2644 15.313 20.2159 15.9393 20.4248L16.5339 20.624V19.4673C16.5339 17.4868 17.3207 15.5875 18.7211 14.187C20.1215 12.7866 22.0209 11.9999 24.0014 11.9999C25.9819 11.9999 27.8813 12.7866 29.2817 14.187C30.6821 15.5875 31.4688 17.4868 31.4688 19.4673V20.624L32.0646 20.4248C32.3756 20.3176 32.7049 20.2731 33.0333 20.294C33.3616 20.3148 33.6826 20.4005 33.9776 20.5462C34.2727 20.6919 34.5359 20.8946 34.7521 21.1426C34.9683 21.3906 35.1331 21.6791 35.2372 21.9912C35.3412 22.3034 35.3823 22.6331 35.3581 22.9612C35.3339 23.2893 35.2448 23.6094 35.0962 23.9029C34.9475 24.1965 34.7421 24.4576 34.4918 24.6712C34.2416 24.8849 33.9515 25.0468 33.6383 25.1476L32.2349 25.615C32.9117 27.0535 34.0001 28.2588 35.3624 29.0782L36.2535 29.6126C36.5417 29.7853 36.7653 30.0477 36.8901 30.3596C37.0149 30.6716 37.034 31.0158 36.9444 31.3397C36.8548 31.6635 36.6616 31.949 36.3942 32.1525C36.1269 32.3559 35.8002 32.4662 35.4642 32.4662H33.5354C33.4841 32.4662 33.4338 32.4805 33.3901 32.5075C33.3464 32.5344 33.3111 32.573 33.2881 32.6189L33.099 32.9972C32.8478 33.5037 32.4597 33.9297 31.9788 34.2269C31.4979 34.5241 30.9434 34.6806 30.378 34.6788H28.3651C27.8068 34.6794 27.2562 34.8095 26.7566 35.0588L26.4131 35.2303C25.683 35.5942 24.8785 35.7841 24.0628 35.7851ZM12.9844 30.8068H14.4674C14.8277 30.805 15.1813 30.9044 15.488 31.0936C15.7946 31.2828 16.042 31.5543 16.2021 31.8771L16.3907 32.2549C16.5046 32.4848 16.6805 32.6782 16.8986 32.8133C17.1167 32.9483 17.3682 33.0197 17.6247 33.0194H19.6376C20.4533 33.0199 21.2577 33.2092 21.9879 33.5725L22.3314 33.744C22.831 33.9933 23.3816 34.1234 23.94 34.124H24.0628C24.6211 34.1234 25.1717 33.9933 25.6713 33.744L26.0148 33.5725C26.7451 33.2092 27.5495 33.0199 28.3651 33.0194H30.378C30.635 33.0203 30.8871 32.9491 31.1058 32.814C31.3244 32.6789 31.5007 32.4852 31.6149 32.2549L31.8035 31.8771C31.9633 31.5547 32.2103 31.2835 32.5164 31.0943C32.8225 30.9051 33.1755 30.8055 33.5354 30.8068H35.0184L34.5111 30.5009C32.5688 29.3326 31.097 27.5209 30.3515 25.3804C30.3154 25.2767 30.3002 25.1668 30.3069 25.0571C30.3136 24.9475 30.342 24.8402 30.3905 24.7416C30.439 24.643 30.5066 24.555 30.5893 24.4828C30.6721 24.4105 30.7683 24.3554 30.8726 24.3206L33.1161 23.5733C33.2721 23.5218 33.4093 23.4251 33.5103 23.2955C33.6113 23.1659 33.6715 23.0092 33.6833 22.8453C33.6952 22.6815 33.6581 22.5178 33.5768 22.375C33.4955 22.2322 33.3737 22.1168 33.2267 22.0433C33.1296 21.9943 33.0236 21.9651 32.9151 21.9575C32.8065 21.9499 32.6975 21.964 32.5945 21.9991L30.9019 22.5649C30.7769 22.6067 30.6438 22.618 30.5136 22.5981C30.3833 22.5781 30.2597 22.5275 30.153 22.4503C30.0462 22.3731 29.9594 22.2716 29.8996 22.1542C29.8399 22.0368 29.8089 21.9068 29.8094 21.775V19.4673C29.8094 17.9269 29.1975 16.4497 28.1083 15.3604C27.0191 14.2712 25.5418 13.6593 24.0014 13.6593C22.461 13.6593 20.9837 14.2712 19.8945 15.3604C18.8053 16.4497 18.1934 17.9269 18.1934 19.4673V21.775C18.1938 21.9068 18.1629 22.0368 18.1032 22.1542C18.0434 22.2716 17.9566 22.3731 17.8498 22.4503C17.743 22.5275 17.6194 22.5781 17.4892 22.5981C17.359 22.618 17.2259 22.6067 17.1009 22.5649L15.4133 22.0018C15.2045 21.9322 14.9766 21.9484 14.7798 22.0468C14.583 22.1452 14.4333 22.3177 14.3637 22.5265C14.2941 22.7353 14.3102 22.9631 14.4086 23.16C14.507 23.3568 14.6796 23.5065 14.8883 23.5761L17.1324 24.3234C17.2367 24.3581 17.3329 24.4133 17.4157 24.4855C17.4984 24.5578 17.566 24.6458 17.6145 24.7444C17.663 24.843 17.6914 24.9502 17.6981 25.0599C17.7048 25.1695 17.6896 25.2794 17.6535 25.3832C16.9068 27.523 15.4343 29.3337 13.4916 30.5009L12.9844 30.8068Z" fill="black"/></svg>
