<svg xmlns="http://www.w3.org/2000/svg" width="48" height="48" viewBox="0 0 48 48" fill="none"><rect width="48" height="48" rx="1.556" fill="#1bc0e4"/><path fill-rule="evenodd" d="M14.667 17.696a1.33 1.33 0 1 1 2.662 0 1.33 1.33 0 1 1-2.662 0zm1.331-5.331a5.33 5.33 0 1 0 0 10.662 5.33 5.33 0 1 0 0-10.662zm20.162 21.984c-.135.087-.316.048-.403-.087l-4.512-7-6.367 4.713c-1.104.817-2.644.678-3.584-.323l-1.558-1.659-6.037 4.528c-.129.097-.312.071-.408-.058l-2.37-3.16c-.097-.129-.07-.312.058-.408l7.345-5.509c1.104-.828 2.653-.693 3.597.313l1.565 1.667 6.627-4.905a2.71 2.71 0 0 1 3.885.709l5.567 8.639c.087.135.048.316-.087.403l-3.32 2.14z" fill="#fff"/></svg>