<svg xmlns="http://www.w3.org/2000/svg" width="48" height="48" viewBox="0 0 48 48" fill="none"><rect width="48" height="48" rx="1.556" fill="#464f6f"/><path fill-rule="evenodd" d="M22.7 34.953c.153.051.318-.032.369-.184l6.482-19.447c.051-.153-.032-.318-.184-.369l-3.241-1.081c-.153-.051-.318.032-.369.184l-6.482 19.447c-.051.153.032.318.184.369l3.241 1.08zm17.381-9.539l-6.46 6.46c-.114.114-.299.114-.413 0l-2.416-2.416c-.114-.114-.114-.299 0-.413L35.839 24l-5.046-5.046c-.114-.114-.114-.299 0-.412l2.416-2.416c.114-.114.299-.114.413 0l6.46 6.461.795.796c.342.342.342.896 0 1.237l-.795.796zM7.919 22.586l6.46-6.46c.114-.114.299-.114.413 0l2.416 2.416c.114.114.114.299 0 .412L12.162 24l5.046 5.046c.114.114.114.299 0 .413l-2.416 2.416c-.114.114-.299.114-.413 0l-6.46-6.46-.795-.796c-.342-.342-.342-.896 0-1.237l.795-.796z" fill="#fff"/></svg>