<svg width="48" height="48" viewBox="0 0 48 48" fill="none" xmlns="http://www.w3.org/2000/svg"><g clip-path="url(#clip0_67_12)"><path d="M43.3333 0H4.66668C2.08934 0 0 2.08934 0 4.66668V43.3333C0 45.9107 2.08934 48 4.66668 48H43.3333C45.9107 48 48 45.9107 48 43.3333V4.66668C48 2.08934 45.9107 0 43.3333 0Z" fill="#219C26"/><path d="M32.4293 34.6668C33.1388 34.6668 33.5534 33.867 33.1442 33.2874L26.3736 23.6908L32.6729 14.6998C33.0791 14.1199 32.6642 13.3228 31.9562 13.3228H28.6356C28.3421 13.3228 28.0682 13.4699 27.9061 13.7146L23.3336 20.6188L18.6976 13.7102C18.5351 13.468 18.2627 13.3228 17.9711 13.3228H14.7081C14.0006 13.3228 13.5856 14.1188 13.9907 14.6988L20.2936 23.7228L13.5264 33.2862C13.1163 33.8658 13.5308 34.6668 14.2407 34.6668H17.4977C17.7857 34.6668 18.0551 34.5252 18.2184 34.2879L23.3336 26.8588L28.417 34.2861C28.5801 34.5243 28.8503 34.6668 29.1391 34.6668H32.4293Z" fill="white"/></g><defs><clipPath id="clip0_67_12"><rect width="48" height="48" fill="white"/></clipPath></defs></svg>
