<svg width="48" height="48" viewBox="0 0 48 48" fill="none" xmlns="http://www.w3.org/2000/svg"><rect width="48" height="48" rx="8" fill="#06C755"/><path d="M37.2875 22.0719C37.2875 15.9668 31.1672 10.9999 23.6437 10.9999C16.1211 10.9999 10 15.9668 10 22.0719C10 27.5452 14.8539 32.1289 21.4105 32.9957C21.8549 33.0914 22.4596 33.2886 22.6126 33.6684C22.7502 34.0134 22.7026 34.5537 22.6566 34.9021C22.6566 34.9021 22.4965 35.8649 22.462 36.07C22.4026 36.415 22.1878 37.4191 23.6437 36.8054C25.1 36.1918 31.5012 32.1788 34.3637 28.8841C36.341 26.7158 37.2875 24.5154 37.2875 22.0719Z" fill="white"/><path d="M20.8715 19.1203H19.9144C19.7677 19.1203 19.6484 19.2393 19.6484 19.3855V25.3306C19.6484 25.4771 19.7677 25.5958 19.9144 25.5958H20.8715C21.0182 25.5958 21.1372 25.4771 21.1372 25.3306V19.3855C21.1372 19.2393 21.0182 19.1203 20.8715 19.1203Z" fill="#00B900"/><path d="M27.4595 19.1203H26.5024C26.3557 19.1203 26.2367 19.2393 26.2367 19.3855V22.9175L23.5124 19.2383C23.4638 19.1654 23.3785 19.1203 23.2911 19.1203H22.3343C22.1876 19.1203 22.0683 19.2393 22.0683 19.3855V25.3306C22.0683 25.4771 22.1876 25.5958 22.3343 25.5958H23.2911C23.4381 25.5958 23.5571 25.4771 23.5571 25.3306V21.7996L26.2848 25.4836C26.3338 25.553 26.4176 25.5958 26.5024 25.5958H27.4595C27.6065 25.5958 27.7252 25.4771 27.7252 25.3306V19.3855C27.7252 19.2393 27.6065 19.1203 27.4595 19.1203Z" fill="#00B900"/><path d="M18.5636 24.1084H15.9632V19.3871C15.9632 19.2404 15.8442 19.1214 15.6978 19.1214H14.7405C14.5937 19.1214 14.4747 19.2404 14.4747 19.3871V25.3312C14.4747 25.4767 14.5945 25.5972 14.7402 25.5972H18.5636C18.7103 25.5972 18.8288 25.4779 18.8288 25.3312V24.3741C18.8288 24.2274 18.7103 24.1084 18.5636 24.1084Z" fill="#00B900"/><path d="M32.7425 20.6101C32.8892 20.6101 33.0077 20.4914 33.0077 20.3444V19.3874C33.0077 19.2406 32.8892 19.1214 32.7425 19.1214H28.9194C28.7739 19.1214 28.6536 19.2416 28.6536 19.3871V25.3314C28.6536 25.4766 28.7735 25.5972 28.9189 25.5972H32.7425C32.8892 25.5972 33.0077 25.4779 33.0077 25.3314V24.3741C33.0077 24.2277 32.8892 24.1084 32.7425 24.1084H30.1424V23.1035H32.7425C32.8892 23.1035 33.0077 22.9845 33.0077 22.8378V21.8807C33.0077 21.734 32.8892 21.6147 32.7425 21.6147H30.1424V20.6101H32.7425Z" fill="#00B900"/></svg>