<svg xmlns="http://www.w3.org/2000/svg" width="48" height="48" viewBox="0 0 48 48" fill="none"><rect width="48" height="48" rx="1.556" fill="#de2134"/><path d="M12.451 31.891c2.399-.178 4.71-1.069 6.576-2.673 3.644.802 7.109 1.96 10.575 3.386C32.357 37.505 34.935 40 37.156 40c.444 0 .978-.089 1.333-.356.977-.446 1.511-1.426 1.511-2.406 0-.802-.178-3.03-8.62-6.683-1.955-3.564-3.466-7.218-4.71-11.05 1.066-2.139 3.377-7.396 1.777-10.069-.533-.98-1.6-1.515-2.755-1.426-.889 0-1.777.446-2.311 1.158-1.155 1.604-1.066 4.99.444 9.98-1.422 2.673-3.288 5.079-5.51 7.129-1.866-.356-3.733-.624-5.599-.624-4.177.089-4.799 2.05-4.71 3.208 0 3.03 2.933 3.03 4.443 3.03h0zm24.883 5.525l-.267-.089c-1.244-.446-2.222-1.337-2.933-2.495 1.333.535 2.399 1.426 3.199 2.584h0zM25.515 10.683h.267c.089 0 .267 0 .356.089.355 1.515.089 3.119-.533 4.545-.533-1.515-.533-3.119-.089-4.634h0zm-.622 12.921l.089.178.089-.089c.8 2.049 1.689 4.099 2.666 6.06l-.178-.089v.178c-1.955-.713-4.088-1.337-6.043-1.782l.089-.089h-.267c1.333-1.337 2.577-2.851 3.555-4.366h0zm-12.086 4.723c.8 0 1.511 0 2.311.178-.889.446-1.777.624-2.666.713-.622.089-1.244 0-1.777-.178 0-.267.355-.713 2.133-.713z" fill="#fff"/></svg>