<svg width="48" height="48" viewBox="0 0 48 48" fill="none" xmlns="http://www.w3.org/2000/svg"><rect width="48" height="48" rx="8" fill="#249BCE"/><path d="M13.0327 22.9892L27.9243 16.8626C29.3943 16.2244 34.3795 14.1822 34.3795 14.1822C34.3795 14.1822 36.6804 13.2888 36.4886 15.4586C36.4247 16.3521 35.9134 19.4792 35.4021 22.8616L33.8043 32.8811C33.8043 32.8811 33.6765 34.349 32.59 34.6043C31.5035 34.8595 29.7139 33.7108 29.3943 33.4555C29.1387 33.2641 24.6009 30.3922 22.9392 28.9882C22.4918 28.6053 21.9805 27.8395 23.0031 26.946C25.3039 24.84 28.0522 22.2234 29.7139 20.5641C30.4809 19.7983 31.2478 18.0114 28.0522 20.1812L19.0405 26.244C19.0405 26.244 18.0179 26.8822 16.1005 26.3078C14.1831 25.7334 11.9462 24.9676 11.9462 24.9676C11.9462 24.9676 10.4123 24.0103 13.0327 22.9892Z" fill="white"/></svg>