<svg xmlns="http://www.w3.org/2000/svg" width="48" height="48" viewBox="0 0 48 48" fill="none"><rect width="48" height="48" rx="1.556" fill="#f6ba1e"/><path fill-rule="evenodd" d="M18.934 14.72c-.405 0-.733.328-.733.733v18h-.01l.002.132a5.24 5.24 0 0 1-5.239 5.239 5.24 5.24 0 0 1-5.238-5.239 5.24 5.24 0 0 1 5.238-5.239c.242 0 .48.016.713.048V15.454a5.27 5.27 0 0 1 5.267-5.267h12.6a5.27 5.27 0 0 1 5.267 5.267v15.402h-.013l.013.378a5.24 5.24 0 0 1-5.239 5.238 5.24 5.24 0 0 1-5.239-5.238 5.24 5.24 0 0 1 5.239-5.239 5.29 5.29 0 0 1 .705.047V15.454c0-.405-.328-.733-.733-.733h-12.6z" fill="#fff"/></svg>