<svg xmlns="http://www.w3.org/2000/svg" width="48" height="48" viewBox="0 0 48 48" fill="none" stroke="currentColor" stroke-width="3"><path d="M24.144 10.664a9.37 9.37 0 0 1 13.25 0 9.37 9.37 0 0 1 0 13.25l-3.643 3.643a1.5 1.5 0 0 1-2.121 0L20.501 16.428a1.5 1.5 0 0 1 0-2.121l3.643-3.643zM10.691 24.116a9.37 9.37 0 0 0 0 13.25 9.37 9.37 0 0 0 13.249 0l3.643-3.643a1.5 1.5 0 0 0 0-2.121L16.455 20.473a1.5 1.5 0 0 0-2.121 0l-3.643 3.643z"/><path d="M22.595 18.729l-2.885 2.885m9.611 3.839l-2.885 2.885m11.057-17.775l4.803-4.803M10.592 37.465l-4.803 4.803" stroke-linecap="round"/></svg>