<svg xmlns="http://www.w3.org/2000/svg" width="48" height="48" viewBox="0 0 48 48" fill="none"><g clip-path="url(#A)" fill-rule="evenodd" fill="currentColor"><path d="M24 44.571c11.361 0 20.571-9.21 20.571-20.571S35.361 3.429 24 3.429 3.429 12.639 3.429 24 12.639 44.571 24 44.571zM24 48c13.255 0 24-10.745 24-24S37.255 0 24 0 0 10.745 0 24s10.745 24 24 24zm-.012-39.67c.709-.005 1.349.428 1.608 1.088.933 2.377 1.808 4.052 2.907 5.585 1.109 1.548 2.488 3.009 4.503 4.935.506.484.667 1.227.407 1.877s-.891 1.076-1.591 1.076H30.35a14.41 14.41 0 0 0 1.185 2.285c.794 1.237 1.833 2.417 3.416 3.958.5.487.655 1.227.393 1.874s-.891 1.069-1.588 1.069H25.98v5.878c0 .947-.768 1.714-1.714 1.714s-1.714-.767-1.714-1.714v-5.878h-8.305c-.708 0-1.343-.435-1.598-1.095s-.08-1.409.443-1.886c1.696-1.547 2.771-2.721 3.548-3.933.441-.688.803-1.416 1.124-2.271h-1.316c-.705 0-1.338-.432-1.596-1.088a1.71 1.71 0 0 1 .431-1.883c2.042-1.893 3.373-3.371 4.409-4.915s1.822-3.219 2.705-5.564c.25-.664.883-1.105 1.592-1.11zm-3.48 11.187c.364.094.69.306.926.609.325.418.438.963.307 1.476-.542 2.122-1.19 3.811-2.215 5.411-.36.561-.759 1.101-1.204 1.636h11.5a18.42 18.42 0 0 1-1.172-1.62c-1.005-1.567-1.709-3.228-2.366-5.343-.162-.52-.066-1.086.257-1.525.285-.387.718-.634 1.19-.687a27.54 27.54 0 0 1-2.014-2.473 23.53 23.53 0 0 1-1.669-2.698 23.01 23.01 0 0 1-1.509 2.613c-.596.888-1.261 1.738-2.03 2.602z"/></g><defs><clipPath id="A"><path fill="#fff" d="M0 0h48v48H0z"/></clipPath></defs></svg>