<svg xmlns="http://www.w3.org/2000/svg" width="48" height="48" viewBox="0 0 48 48" fill="none"><path d="M23.25 18.039l-4.409 3.123c-.77-1.157-1.834-2.143-3.152-2.834-4.192-2.199-9.373-.582-11.572 3.61s-.582 9.373 3.61 11.572c3.135 1.644 6.823 1.155 9.403-.949l4.941-4.436m8.973-15.63l7.175-4.989.859 1.219a6.86 6.86 0 0 1-1.655 9.555l-7.076 4.98m-9.137 11.657l2.221-24.715a6.86 6.86 0 0 1 7.448-6.211l1.486.135-2.138 23.611c1.387.088 2.773.516 4.03 1.312 4 2.531 5.191 7.826 2.66 11.827s-7.826 5.191-11.826 2.66c-2.991-1.893-4.411-5.331-3.879-8.618z" stroke="currentColor" stroke-width="3" stroke-linejoin="round"/><g fill="currentColor"><use href="#B"/><use href="#B" x="18.322" y="10.967"/></g><defs ><path id="B" d="M14.944 25.713c0 2.012-1.631 3.643-3.643 3.643s-3.643-1.631-3.643-3.643 1.631-3.643 3.643-3.643 3.643 1.631 3.643 3.643z"/></defs></svg>