<svg xmlns="http://www.w3.org/2000/svg" width="48" height="48" viewBox="0 0 48 48" fill="none" stroke="currentColor" stroke-width="3"><path d="M26.038 8.746a9.37 9.37 0 0 1 13.249 0 9.37 9.37 0 0 1 0 13.25l-3.643 3.643a1.5 1.5 0 0 1-2.121 0L22.395 14.51a1.5 1.5 0 0 1 0-2.121l3.643-3.643zM8.746 26.038a9.37 9.37 0 0 0 0 13.25 9.37 9.37 0 0 0 13.249 0l3.643-3.643a1.5 1.5 0 0 0 0-2.121L14.51 22.395a1.5 1.5 0 0 0-2.121 0l-3.643 3.643z"/><path d="M24.498 16.812l-2.885 2.885m9.608 3.839l-2.885 2.885M39.388 8.646L45 2.897M8.647 39.388L3 44.898" stroke-linecap="round"/></svg>