<svg width="48" height="48" viewBox="0 0 48 48" fill="none" xmlns="http://www.w3.org/2000/svg"><path d="M34.8789 18.5508C34.8789 9.71423 27.7155 2.55078 18.8789 2.55078C10.0424 2.55078 2.87891 9.71423 2.87891 18.5508C2.87891 27.3873 10.0424 34.5508 18.8789 34.5508C27.7155 34.5508 34.8789 27.3873 34.8789 18.5508Z" stroke="currentColor" stroke-width="3" stroke-linejoin="round"/><path d="M24.1885 34.5508C24.1885 40.3821 28.9157 45.1094 34.7471 45.1094C40.5784 45.1094 45.3057 40.3821 45.3057 34.5508C45.3057 28.7194 40.5784 23.9922 34.7471 23.9922" stroke="currentColor" stroke-width="3" stroke-linejoin="round"/><path d="M18.8779 7.81934L22.2211 13.9494L29.0841 15.2346L24.2872 20.3084L25.1857 27.2327L18.8779 24.2384L12.5701 27.2327L13.4686 20.3084L8.67172 15.2346L15.5348 13.9494L18.8779 7.81934Z" stroke="currentColor" stroke-width="3" stroke-linejoin="round"/></svg>
