<svg xmlns="http://www.w3.org/2000/svg" width="48" height="48" viewBox="0 0 48 48" fill="none" stroke="currentColor" stroke-width="3"><path d="M21.097 7.518a17.09 17.09 0 0 0-2.582.483 16.93 16.93 0 0 0-10.311 7.912 17.25 17.25 0 0 0-.381.696m10.648-2.692l3.895-6.747m-6.745-3.896l6.747 3.895m6.034 31.813c.864-.094 1.727-.254 2.582-.483a16.93 16.93 0 0 0 10.311-7.912 17.16 17.16 0 0 0 .381-.696M31.03 32.584l-3.895 6.747m6.747 3.894l-6.747-3.895" stroke-linecap="round"/><circle cx="35.319" cy="10.991" r="4.991"/><path d="M43.638 24.3a8.32 8.32 0 0 0-8.318-8.318 8.32 8.32 0 0 0-8.318 8.318" stroke-linecap="round"/><circle cx="11.313" cy="28.991" r="4.991"/><path d="M19.633 42.3a8.32 8.32 0 0 0-8.318-8.318A8.32 8.32 0 0 0 2.996 42.3" stroke-linecap="round"/></svg>