<svg width="48" height="48" viewBox="0 0 48 48" fill="none" xmlns="http://www.w3.org/2000/svg">
<ellipse cx="24" cy="24" rx="19.5" ry="19.5" fill="currentColor"/>
<path d="M19.9797 31.8579H28.1392V34.4876C28.1392 35.9839 26.9263 37.1968 25.43 37.1968H22.689C21.1927 37.1968 19.9797 35.9839 19.9797 34.4876V31.8579Z" stroke="{innerColor,#fff}" stroke-width="3"/>
<path d="M24.0635 10.9362C18.8111 10.9362 14.5531 15.1093 14.5531 20.257C14.5531 22.7157 15.5244 24.9521 17.1116 26.6176C18.6096 28.1896 19.9876 30.0694 19.9876 32.2409H28.1393C28.1393 30.0694 29.5173 28.1896 31.0153 26.6176C32.6025 24.9521 33.5738 22.7157 33.5738 20.257C33.5738 15.1093 29.3158 10.9362 24.0635 10.9362Z" stroke="{innerColor,#fff}" stroke-width="3"/>
<path d="M25.6316 15.4468C26.3403 15.6973 26.9848 16.0839 27.5337 16.5751C28.2404 17.2076 28.7885 18.0137 29.111 18.9263" stroke="{innerColor,#fff}" stroke-width="3" stroke-linecap="round"/>
</svg>
