<svg xmlns="http://www.w3.org/2000/svg" width="48" height="48" viewBox="0 0 48 48" fill="none"><path d="M21.488 4.618c1.037-2.158 3.986-2.158 5.023 0l4.372 9.098c.409.851 1.188 1.442 2.089 1.585l9.637 1.531c2.286.363 3.197 3.292 1.552 4.989l-6.934 7.154c-.649.669-.946 1.625-.798 2.564l1.584 10.044c.376 2.382-2.011 4.192-4.064 3.083l-8.658-4.676c-.81-.437-1.772-.437-2.582 0l-8.658 4.676c-2.053 1.109-4.439-.701-4.064-3.083l1.583-10.044c.148-.939-.149-1.895-.798-2.564l-6.934-7.154c-1.645-1.697-.733-4.626 1.552-4.989l9.637-1.531c.901-.143 1.68-.734 2.089-1.585l4.372-9.098z" fill="currentColor"/></svg>