<svg width="48" height="48" viewBox="0 0 48 48" fill="none" xmlns="http://www.w3.org/2000/svg">
<path fill-rule="evenodd" clip-rule="evenodd" d="M23.6672 3.0047C27.9427 3.10685 32.1875 4.79093 35.4504 8.05646C41.8469 14.4585 42.2152 24.7184 36.2941 31.5633L25.6008 43.9256L25.4816 44.0555C25.441 44.0974 25.3989 44.1374 25.3566 44.1766C25.2966 44.2321 25.2342 44.2839 25.1711 44.3338C25.1477 44.3522 25.1245 44.3708 25.1008 44.3885C25.0828 44.4019 25.0643 44.4146 25.0461 44.4276C25.0243 44.443 25.0027 44.4586 24.9806 44.4734C24.9559 44.49 24.9305 44.5055 24.9054 44.5213C24.8804 44.5371 24.8556 44.5532 24.8302 44.5682C24.8093 44.5806 24.788 44.5925 24.7668 44.6043C24.746 44.6159 24.7252 44.6274 24.7043 44.6385C24.6749 44.654 24.6452 44.6689 24.6154 44.6834C24.596 44.6929 24.5763 44.7017 24.5568 44.7108C24.5277 44.7242 24.4984 44.7373 24.4689 44.7498C24.4497 44.758 24.4306 44.7665 24.4113 44.7742C24.3861 44.7844 24.3606 44.7941 24.3351 44.8035C24.3044 44.8149 24.2733 44.8254 24.2424 44.8358C24.2254 44.8414 24.2086 44.8479 24.1916 44.8533C24.159 44.8636 24.1258 44.8725 24.0929 44.8817C24.0715 44.8876 24.05 44.8937 24.0285 44.8992C24.0071 44.9047 23.9855 44.9098 23.964 44.9149C23.9325 44.9222 23.901 44.93 23.8693 44.9363C23.8606 44.9381 23.8517 44.9395 23.8429 44.9412C23.7491 44.9593 23.6546 44.9739 23.5597 44.9832C23.5546 44.9837 23.5493 44.9837 23.5441 44.9842C23.3506 45.0023 23.1556 45.0023 22.9621 44.9842C22.9556 44.9836 22.949 44.9838 22.9425 44.9832C22.8502 44.974 22.7585 44.9587 22.6672 44.9412C22.6552 44.9389 22.6429 44.9378 22.631 44.9354C22.6052 44.9301 22.5796 44.9237 22.5539 44.9178C22.5252 44.9112 22.4964 44.9047 22.4679 44.8973C22.4536 44.8936 22.4392 44.8895 22.425 44.8856C22.3848 44.8745 22.3446 44.8631 22.3049 44.8504C22.2954 44.8474 22.286 44.8438 22.2765 44.8406C22.2373 44.8277 22.1981 44.8142 22.1593 44.7996C22.1424 44.7933 22.1254 44.7868 22.1086 44.7801C22.0792 44.7685 22.0498 44.7565 22.0207 44.744C22.0004 44.7352 21.9802 44.7258 21.9601 44.7166C21.9311 44.7033 21.9019 44.6898 21.8732 44.6756C21.8531 44.6656 21.8326 44.6558 21.8127 44.6453C21.7771 44.6267 21.7421 44.6068 21.7072 44.5867C21.7004 44.5828 21.6935 44.579 21.6867 44.575C21.6498 44.5535 21.6134 44.5308 21.5773 44.5076C21.5637 44.4989 21.5498 44.4903 21.5363 44.4813C21.4547 44.427 21.3752 44.3683 21.298 44.3055C21.2894 44.2985 21.2802 44.2921 21.2717 44.285C21.186 44.2137 21.1029 44.1374 21.0236 44.0555L20.9054 43.9256L10.2121 31.5633C9.23738 30.4365 8.43401 29.2167 7.79899 27.9373C7.77601 27.891 7.7522 27.8451 7.72966 27.7986C7.70124 27.7401 7.67437 27.6807 7.64665 27.6219C7.61753 27.5601 7.58808 27.4984 7.55974 27.4363C7.53176 27.3751 7.50492 27.3133 7.47771 27.2518C7.44991 27.189 7.4217 27.1263 7.3947 27.0633C7.36896 27.0032 7.34354 26.9429 7.31853 26.8826C7.29425 26.8241 7.26986 26.7656 7.24626 26.7068C7.21381 26.6261 7.18271 26.5448 7.15153 26.4637C7.13601 26.4233 7.11987 26.3831 7.10466 26.3426C6.97857 26.0069 6.86333 25.6682 6.75896 25.327C6.74742 25.2893 6.73605 25.2515 6.72478 25.2137C6.66203 25.0034 6.60451 24.7919 6.54997 24.5799C6.53874 24.5362 6.52668 24.4928 6.51579 24.449C6.49654 24.3717 6.47829 24.2941 6.46013 24.2166C6.44671 24.1593 6.43292 24.1021 6.42009 24.0447C6.3757 23.8461 6.3353 23.6468 6.29802 23.4471C6.28647 23.3853 6.2747 23.3235 6.26384 23.2615C6.22795 23.057 6.1966 22.8518 6.16813 22.6463C6.15993 22.5871 6.15131 22.5279 6.14372 22.4686C6.13856 22.4282 6.13395 22.3878 6.12907 22.3475C6.11806 22.2564 6.10738 22.1653 6.09782 22.074C6.09227 22.021 6.08726 21.9679 6.0822 21.9149C6.07499 21.8394 6.06888 21.7638 6.06267 21.6883C6.05855 21.6382 6.05463 21.588 6.05095 21.5379C6.04578 21.4676 6.04061 21.3973 6.0363 21.327C6.03084 21.2378 6.02671 21.1486 6.02263 21.0594C6.02079 21.0193 6.01832 20.9793 6.01677 20.9393C6.01412 20.8709 6.01177 20.8026 6.00993 20.7342C6.00803 20.6639 6.00609 20.5936 6.00505 20.5233C6.00419 20.4653 6.00435 20.4074 6.00407 20.3494C6.00369 20.2706 6.00338 20.1919 6.00407 20.1131C6.00457 20.0564 6.00595 19.9998 6.007 19.9432C6.00821 19.8781 6.00994 19.813 6.01188 19.7479C6.01385 19.6821 6.01601 19.6163 6.01872 19.5506C6.02158 19.4812 6.0248 19.4119 6.02849 19.3426C6.03173 19.2817 6.03534 19.2208 6.03923 19.16C6.04351 19.0929 6.04784 19.0258 6.0529 18.9588C6.05775 18.8947 6.06297 18.8305 6.06853 18.7664C6.07521 18.6892 6.08229 18.6121 6.09001 18.535C6.09432 18.492 6.09905 18.449 6.10368 18.4061C6.114 18.3103 6.12497 18.2146 6.13688 18.119C6.14082 18.0874 6.1445 18.0558 6.1486 18.0242C6.16116 17.9278 6.17446 17.8314 6.18864 17.7352C6.19421 17.6974 6.2004 17.6596 6.20622 17.6219C6.21862 17.5414 6.23174 17.461 6.24528 17.3807C6.25473 17.3246 6.26458 17.2687 6.27458 17.2127C6.28931 17.1303 6.30455 17.0479 6.32048 16.9656C6.32888 16.9223 6.33811 16.8791 6.34685 16.8358C6.36248 16.7582 6.378 16.6807 6.3947 16.6033C6.40567 16.5525 6.41647 16.5017 6.4279 16.451C6.4479 16.3623 6.469 16.2738 6.4904 16.1854C6.49939 16.1482 6.50851 16.1111 6.51774 16.074C6.53951 15.9867 6.56198 15.8994 6.58513 15.8123C6.59585 15.772 6.60633 15.7315 6.61735 15.6912C6.63956 15.6101 6.66231 15.529 6.68571 15.4481C6.70079 15.3959 6.71603 15.3438 6.73161 15.2918C6.79633 15.0758 6.8663 14.8611 6.93962 14.6473C6.95096 14.6142 6.96127 14.5807 6.97282 14.5477C7.04649 14.3371 7.12517 14.1279 7.2072 13.9197C7.21796 13.8924 7.22852 13.865 7.23942 13.8377L7.27653 13.7449C7.30362 13.6783 7.33159 13.612 7.35954 13.5457C7.37437 13.5105 7.38939 13.4754 7.40446 13.4402C7.44273 13.3511 7.48182 13.2622 7.52165 13.1736C7.5355 13.1428 7.54862 13.1116 7.56267 13.0809C7.60074 12.9975 7.64039 12.9147 7.67985 12.8318C7.70031 12.7889 7.72055 12.7458 7.74138 12.7029C8.50058 11.1424 9.50756 9.67466 10.7599 8.35919L11.0558 8.05646C11.3715 7.7405 11.6962 7.4385 12.0295 7.15216C15.2514 4.38365 19.2524 2.99981 23.2531 2.99982C23.3911 2.99982 23.5292 3.00141 23.6672 3.0047ZM33.8605 14.0955C33.2748 13.5099 32.3252 13.5099 31.7394 14.0955L20.3381 25.4959L15.8605 21.0184C15.2747 20.4328 14.3251 20.4327 13.7394 21.0184C13.1537 21.6041 13.1538 22.5537 13.7394 23.1395L19.2775 28.6776C19.8633 29.2633 20.8128 29.2633 21.3986 28.6776L33.8605 16.2166C34.4461 15.6309 34.4461 14.6813 33.8605 14.0955Z" fill="currentColor"/>
</svg>
