<svg width="48" height="48" viewBox="0 0 48 48" xmlns="http://www.w3.org/2000/svg" fill="currentColor" stroke="currentColor" stroke-width="3.5" stroke-linejoin="round">
<path data-click="triangleUpClick" part="triangleUp" d="M34.3302 19.714C35.0143 19.714 35.633 19.3072 35.9041 18.6791C36.1752 18.0509 36.0468 17.3217 35.5775 16.8239L25.27 5.89054C24.9465 5.54746 24.4961 5.35275 24.0246 5.35223C23.5531 5.35171 23.1021 5.54542 22.7779 5.88778L12.4246 16.8211C11.9537 17.3184 11.824 18.0482 12.0947 18.6773C12.3653 19.3064 12.9845 19.714 13.6693 19.714H23.9998H34.3302Z"/>
<path data-click="triangleDownClick" part="triangleDown" d="M34.3302 28.2853C35.0143 28.2853 35.633 28.6921 35.9041 29.3203C36.1752 29.9485 36.0468 30.6777 35.5775 31.1755L25.27 42.1088C24.9465 42.4519 24.4961 42.6466 24.0246 42.6471C23.5531 42.6477 23.1021 42.454 22.7779 42.1116L12.4246 31.1783C11.9537 30.681 11.824 29.9511 12.0947 29.3221C12.3653 28.693 12.9845 28.2853 13.6693 28.2853H23.9998H34.3302Z"/>
</svg>
