<svg xmlns="http://www.w3.org/2000/svg" width="48" height="48" viewBox="0 0 48 48" fill="none"><g stroke-width="3"><path d="M1.714 24A22.29 22.29 0 0 1 24 1.714 22.29 22.29 0 0 1 46.286 24 22.29 22.29 0 0 1 24 46.286 22.29 22.29 0 0 1 1.714 24z" fill="currentColor" stroke="currentColor" /><path d="M17.985 15.305c1.014-1.943 3.183-3.286 5.695-3.286 3.482 0 6.305 2.58 6.305 5.763 0 2.225-1.38 4.156-3.4 5.116-1.496.711-2.905 1.99-2.905 3.646v3.454" stroke="{innerColor,#fff}" stroke-linecap="round"/></g><circle cx="23.25" cy="35.25" r="2.25" fill="{innerColor,#fff}" /></svg>
