<svg xmlns="http://www.w3.org/2000/svg" width="48" height="48" viewBox="0 0 48 48" fill="none"><path d="M10.12 15.472a2.96 2.96 0 0 0-2.958 2.958v11.01a2.96 2.96 0 0 0 2.958 2.958h4.143a1.97 1.97 0 0 1 1.441.625l8.751 9.362c1.222 1.307 3.413.443 3.413-1.346V5.991c0-1.828-2.272-2.672-3.466-1.287l-8.692 10.084a1.97 1.97 0 0 1-1.494.684H10.12z" fill="currentColor"/><g stroke="currentColor" stroke-width="3" stroke-linecap="round"><path d="M31.756 17.574l12.882 12.882"/><path d="M31.756 30.456l12.882-12.882"/></g></svg>