<svg width="48" height="48" viewBox="0 0 48 48" fill="none" xmlns="http://www.w3.org/2000/svg"><path part="outer" d="M21.0814 6.3623C22.2126 4.3623 25.0404 4.3623 26.1715 6.3623L43.9869 37.8623C45.1181 39.8623 43.7041 42.3623 41.4419 42.3623H5.81108C3.5488 42.3623 2.13489 39.8623 3.26603 37.8623L21.0814 6.3623Z" fill="currentColor"/><path d="M20.9318 17.4525C20.8004 15.8432 22.0445 14.4629 23.6265 14.4629C25.2085 14.4629 26.4525 15.8432 26.3212 17.4525L25.2179 30.9681C25.1489 31.813 24.457 32.4629 23.6265 32.4629C22.7959 32.4629 22.104 31.813 22.0351 30.9681L20.9318 17.4525Z" fill="{innerColor,#fff}"/><path d="M23.6265 36.9629C24.438 36.9629 25.0959 36.2913 25.0959 35.4629C25.0959 34.6345 24.438 33.9629 23.6265 33.9629C22.815 33.9629 22.1571 34.6345 22.1571 35.4629C22.1571 36.2913 22.815 36.9629 23.6265 36.9629Z" fill="{innerColor,#fff}"/></svg>