<svg xmlns="http://www.w3.org/2000/svg" width="48" height="48" viewBox="0 0 48 48" fill="none"><path d="M3.002 16.5a3 3 0 0 1 3-3h7.5 6.697a1.5 1.5 0 0 0 1.248-.668l2.109-3.164A1.5 1.5 0 0 1 24.805 9h8.894a1.5 1.5 0 0 1 1.248.668l2.109 3.164a1.5 1.5 0 0 0 1.248.668h3.697a3 3 0 0 1 3 3v21a3 3 0 0 1-3 3h-36a3 3 0 0 1-3-3v-21z" fill="currentColor"/><circle cx="30.005" cy="27" stroke="{innerColor,white}" stroke-width="3" r="7.5"/><path d="M7.499 21a1.5 1.5 0 0 1 3 0v12a1.5 1.5 0 0 1-3 0V21z" fill="{innerColor,white}" fill-opacity=".8"/></svg>