<svg width="48" height="48" viewBox="0 0 48 48" fill="none" xmlns="http://www.w3.org/2000/svg">
<path d="M22.9911 17.2502C30.3087 17.2503 36.2411 23.1826 36.2411 30.5002C36.241 37.8175 30.3086 43.749 22.9911 43.7492C15.6736 43.7492 9.74132 37.8176 9.74115 30.5002C9.74115 23.1825 15.6735 17.2502 22.9911 17.2502Z" fill="currentColor" stroke="currentColor" stroke-width="1.5"/>
<ellipse cx="22.9999" cy="27.8994" rx="4.19993" ry="4.1999" fill="{innerColor,#fff}"/>
<path d="M21.5049 37.8998C21.5049 38.7282 22.1765 39.3997 23.0049 39.3997C23.8333 39.3997 24.5048 38.7282 24.5048 37.8998H21.5049ZM21.5049 26.7V37.8998H24.5048V26.7H21.5049Z" fill="{innerColor,#fff}"/>
<path d="M32.9885 25.5002V14.2505C32.9885 8.8658 28.6234 4.50064 23.2387 4.50064C17.854 4.50064 13.4888 8.8658 13.4888 14.2505V24.7336" stroke="currentColor" stroke-width="3" stroke-linecap="round"/>
</svg>
