<svg width="48" height="48" viewBox="0 0 48 48" fill="none" xmlns="http://www.w3.org/2000/svg">
<path d="M12.2556 39.4995V8.50126C12.2556 7.39669 13.151 6.50126 14.2556 6.50126H18.5638C19.6684 6.50126 20.5638 7.39669 20.5638 8.50126V39.4995C20.5638 40.6041 19.6684 41.4995 18.5638 41.4995H14.2556C13.151 41.4995 12.2556 40.6041 12.2556 39.4995Z" fill="#262627"/>
<path d="M27.4358 39.4995V8.49951C27.4358 7.39494 28.3312 6.49951 29.4358 6.49951H33.7439C34.8485 6.49951 35.7439 7.39494 35.7439 8.49951V39.4995C35.7439 40.6041 34.8485 41.4995 33.7439 41.4995H29.4358C28.3312 41.4995 27.4358 40.6041 27.4358 39.4995Z" fill="#262627"/>
</svg>
