<svg xmlns="http://www.w3.org/2000/svg" width="48" height="48" viewBox="0 0 48 48" fill="none"><path d="M4.232 10.927l1.172-1.3h0l-1.172 1.3zM6.413 5.25V3.5v1.75zm35.189 0V7 5.25zm2.181 5.677l1.172 1.3h0l-1.172-1.3zM23.557 42.502l.662-1.62h0l-.662 1.62zm-1.45-.593l-.662 1.62h0l.662-1.62zm7.017-17.768l-1.172-1.3 1.172 1.3zm-10.117.104l1.172-1.3-1.172 1.3zm1.172-1.3L5.403 9.627l-2.343 2.6 14.775 13.319 2.344-2.6zM5.403 9.627C4.378 8.702 5.032 7 6.413 7V3.5c-4.587 0-6.76 5.655-3.353 8.727l2.343-2.6zM6.413 7h35.189V3.5H6.413V7zm35.189 0c1.381 0 2.035 1.702 1.009 2.627l2.343 2.6C48.362 9.155 46.189 3.5 41.602 3.5V7zm1.009 2.627L27.952 22.842l2.343 2.6 14.659-13.214-2.343-2.6zM26.298 26.561v12.926h3.5V26.561h-3.5zm0 12.926a1.51 1.51 0 0 1-2.078 1.395l-1.325 3.239a5.01 5.01 0 0 0 6.903-4.635h-3.5zm-2.078 1.395l-1.45-.593-1.325 3.239 1.45.593 1.325-3.239zm-1.45-.593a1.51 1.51 0 0 1-.937-1.395h-3.5a5.01 5.01 0 0 0 3.112 4.635l1.325-3.239zm-.937-1.395V26.665h-3.5v12.229h3.5zm6.119-16.052a5.01 5.01 0 0 0-1.655 3.719h3.5c0-.427.181-.834.498-1.12l-2.343-2.6zm-10.118 2.704a1.51 1.51 0 0 1 .498 1.12h3.5c0-1.418-.601-2.77-1.655-3.719l-2.344 2.6z" fill="currentColor"/></svg>