<svg xmlns="http://www.w3.org/2000/svg" width="48" height="48" viewBox="0 0 48 48" fill="none"><g stroke="currentColor" stroke-width="3"><rect x="4.638" y="14.22" width="39" height="27" rx="1.5"/><g stroke-linecap="round"><path d="M15.709 27.719h16.5"/><path d="M23.959 19.469v16.5"/></g></g><mask id="A" fill="#fff"><path d="M3.131 8.218a3 3 0 0 1 3-3h19.657a3 3 0 0 1 2.466 1.292l6.377 9.208h-31.5v-7.5z"/></mask><path d="M34.631 15.719v3h5.727l-3.261-4.708-2.466 1.708zm-31.5 0h-3v3h3v-3zM28.254 6.51l2.466-1.708-2.466 1.708zM6.131 8.218h19.657v-6H6.131v6zm19.657 0l6.377 9.208 4.932-3.416-6.377-9.208-4.933 3.416zm8.843 4.5h-31.5v6h31.5v-6zm-28.5 3v-7.5h-6v7.5h6zm19.657-7.5h0l4.933-3.416a6 6 0 0 0-4.933-2.584v6zm-19.657-6a6 6 0 0 0-6 6h6 0v-6z" fill="currentColor" mask="url(#A)"/></svg>