<svg xmlns="http://www.w3.org/2000/svg" width="48" height="48" viewBox="0 0 48 48" fill="none"><mask id="A" fill="#fff"><path d="M3.146 8.208a3 3 0 0 1 3-3h19.657a3 3 0 0 1 2.466 1.292l6.377 9.208h-31.5v-7.5z"/></mask><path d="M34.645 15.708v3h5.727L37.112 14l-2.466 1.708zm-31.5 0h-3v3h3v-3zm25.123-9.208l2.466-1.708-2.466 1.708zM6.146 8.208h19.657v-6H6.146v6zm19.657 0l6.377 9.208L37.112 14l-6.377-9.208-4.933 3.416zm8.843 4.5h-31.5v6h31.5v-6zm-28.5 3v-7.5h-6v7.5h6zm19.657-7.5h0l4.933-3.416a6 6 0 0 0-4.933-2.584v6zm-19.657-6a6 6 0 0 0-6 6h6 0v-6z" fill="currentColor" mask="url(#A)"/><rect x="4.638" y="14.22" width="39" height="27" rx="1.5" stroke="currentColor" stroke-width="3"/></svg>