<svg xmlns="http://www.w3.org/2000/svg" width="48" height="48" viewBox="0 0 48 48" fill="none"><g stroke="currentColor" stroke-width="3"><rect x="4.638" y="14.22" width="39" height="27" rx="1.5"/><path d="M13.5 27h21" stroke-linecap="round"/></g><mask id="A" fill="#fff"><path d="M3.141 8.208a3 3 0 0 1 3-3h19.657A3 3 0 0 1 28.264 6.5l6.377 9.208h-31.5v-7.5z"/></mask><path d="M34.641 15.708v3h5.727L37.107 14l-2.466 1.708zm-31.5 0h-3v3h3v-3zM28.264 6.5l2.466-1.708L28.264 6.5zM6.141 8.208h19.657v-6H6.141v6zm19.657 0l6.377 9.208L37.107 14 30.73 4.792l-4.933 3.416zm8.843 4.5h-31.5v6h31.5v-6zm-28.5 3v-7.5h-6v7.5h6zm19.657-7.5h0l4.933-3.416a6 6 0 0 0-4.933-2.584v6zm-19.657-6a6 6 0 0 0-6 6h6 0v-6z" fill="currentColor" mask="url(#A)"/></svg>