<svg xmlns="http://www.w3.org/2000/svg" width="48" height="48" viewBox="0 0 48 48" fill="none"><path d="M45.12 24.5a25.28 25.28 0 0 0-.4-4.5H24v8.52h11.84c-.52 2.74-2.08 5.06-4.42 6.62v5.54h7.14c4.16-3.84 6.56-9.48 6.56-16.18z" fill="#4285f4"/><path d="M24 46c5.94 0 10.92-1.96 14.56-5.32l-7.14-5.54c-1.96 1.32-4.46 2.12-7.42 2.12-5.72 0-10.58-3.86-12.32-9.06H4.36v5.68C7.98 41.06 15.4 46 24 46z" fill="#34a853"/><path d="M11.68 28.18c-.44-1.32-.7-2.72-.7-4.18s.26-2.86.7-4.18v-5.68H4.36a21.73 21.73 0 0 0 0 19.72l5.7-4.44 1.62-1.24z" fill="#fbbc05"/><path d="M24 10.76c3.24 0 6.12 1.12 8.42 3.28l6.3-6.3C34.9 4.18 29.94 2 24 2 15.4 2 7.98 6.94 4.36 14.14l7.32 5.68c1.74-5.2 6.6-9.06 12.32-9.06z" fill="#ea4335"/></svg>