<svg xmlns="http://www.w3.org/2000/svg" width="48" height="48" viewBox="0 0 48 48" fill="none"><path d="M16.48 14.215c0-8.333 14.529-8.367 14.529 0v1.854a5.97 5.97 0 0 1-2.841 5.084l-1.655 1.018c-1.522.937-2.448 2.596-2.448 4.383m0 0L3.398 42.73h41.483L24.064 26.554z" stroke="currentColor" stroke-width="3" stroke-linecap="round" stroke-linejoin="round"/><path d="M40.203 2.365c-.276-.955-.491-1.704-.971-1.704s-.695.749-.971 1.704c-.296 1.026-.661 2.291-1.495 3.122s-2.096 1.199-3.122 1.495c-.955.275-1.704.491-1.704.971s.749.695 1.704.971c1.026.296 2.291.661 3.122 1.495s1.199 2.096 1.495 3.122c.276.955.491 1.704.971 1.704s.695-.748.971-1.704c.296-1.026.661-2.291 1.495-3.122s2.096-1.199 3.122-1.495c.955-.275 1.704-.491 1.704-.971s-.748-.695-1.704-.971c-1.026-.296-2.291-.661-3.122-1.495s-1.199-2.096-1.495-3.122z" fill="currentColor"/></svg>