<svg xmlns="http://www.w3.org/2000/svg" width="48" height="48" viewBox="0 0 48 48" fill="none"><g clip-path="url(#A)"><g fill-rule="evenodd" fill="currentColor"><use href="#B"/><use href="#C"/><path d="M12.823 25.88c0-.947.768-1.714 1.714-1.714h.999c.947 0 1.714.767 1.714 1.714s-.768 1.714-1.714 1.714h-.999c-.947 0-1.714-.768-1.714-1.714zm0 6.857c0-.947.768-1.714 1.714-1.714h.999c.947 0 1.714.768 1.714 1.714s-.768 1.714-1.714 1.714h-.999c-.947 0-1.714-.767-1.714-1.714zm5.921-6.857c0-.947.768-1.714 1.714-1.714h.999c.947 0 1.714.767 1.714 1.714s-.768 1.714-1.714 1.714h-.999c-.947 0-1.714-.768-1.714-1.714zm0 6.857c0-.947.768-1.714 1.714-1.714h.999c.947 0 1.714.768 1.714 1.714s-.768 1.714-1.714 1.714h-.999c-.947 0-1.714-.767-1.714-1.714z"/><use href="#D"/><use href="#E"/><path d="M30.587 25.88c0-.947.767-1.714 1.714-1.714h.999c.947 0 1.714.767 1.714 1.714s-.767 1.714-1.714 1.714h-.999c-.947 0-1.714-.768-1.714-1.714zm0 6.857c0-.947.767-1.714 1.714-1.714h.999c.947 0 1.714.768 1.714 1.714s-.767 1.714-1.714 1.714h-.999c-.947 0-1.714-.767-1.714-1.714zm5.921-6.857c0-.947.767-1.714 1.714-1.714h.999c.947 0 1.714.767 1.714 1.714s-.768 1.714-1.714 1.714h-.999c-.947 0-1.714-.768-1.714-1.714zm0 6.857c0-.947.767-1.714 1.714-1.714h.999c.947 0 1.714.768 1.714 1.714s-.768 1.714-1.714 1.714h-.999c-.947 0-1.714-.767-1.714-1.714z"/></g><g stroke="currentColor" stroke-width="3" stroke-linecap="round"><path d="M15.429 38.382h17.143M5.143 45.578h37.714a3.43 3.43 0 0 0 3.429-3.429V21.578a3.43 3.43 0 0 0-3.429-3.429H5.143a3.43 3.43 0 0 0-3.429 3.429v20.571a3.43 3.43 0 0 0 3.429 3.429z"/><path d="M35.017 1.908L24.023 12.902 13.029 1.908" stroke-linejoin="round"/></g></g><defs><clipPath id="A"><path fill="#fff" d="M0 0h48v48H0z"/></clipPath><path id="B" d="M6.902 25.88c0-.947.768-1.714 1.714-1.714h.999c.947 0 1.714.767 1.714 1.714s-.768 1.714-1.714 1.714h-.999c-.947 0-1.714-.768-1.714-1.714z"/><path id="C" d="M6.902 32.737c0-.947.768-1.714 1.714-1.714h.999c.947 0 1.714.768 1.714 1.714s-.768 1.714-1.714 1.714h-.999c-.947 0-1.714-.767-1.714-1.714z"/><path id="D" d="M24.666 25.88c0-.947.767-1.714 1.714-1.714h.999c.947 0 1.714.767 1.714 1.714s-.767 1.714-1.714 1.714h-.999c-.947 0-1.714-.768-1.714-1.714z"/><path id="E" d="M24.666 32.737c0-.947.767-1.714 1.714-1.714h.999c.947 0 1.714.768 1.714 1.714s-.767 1.714-1.714 1.714h-.999c-.947 0-1.714-.767-1.714-1.714z"/></defs></svg>