<svg xmlns="http://www.w3.org/2000/svg" width="48" height="48" viewBox="0 0 48 48" fill="none" stroke="currentColor" stroke-width="3"><circle cx="24" cy="24" r="19.5"/><path d="M27.074 42.093c-.469-1.761-.803-5.494 1.62-6.339 3.029-1.056-.634-6.198 3.522-8.03 3.325-1.465 8.382.413 10.354 2.432M30.284 5.333c-.272 1.27-.516 4.041.681 4.966 1.496 1.156 3.469 2.381 2.313 3.741s-4.49.476-5.986 3.129 2.041 7.687-2.857 9.388-5.443-5.034-9.388-3.129 1.769 6.667-2.448 8.843c-3.374 1.742-6.168-.771-7.143-2.245"/></svg>