<svg width="48" height="48" viewBox="0 0 48 48" fill="none" xmlns="http://www.w3.org/2000/svg">
<path d="M23.6699 3.11133C23.8868 3.0625 24.1122 3.06252 24.3291 3.11133L40.8291 6.82617C41.5133 6.98029 41.999 7.58864 41.999 8.29004V27.9814C41.9989 31.4551 40.1281 34.7486 36.9287 36.7295L24.7891 44.2461C24.3053 44.5455 23.6937 44.5456 23.21 44.2461L11.0703 36.7295C7.8709 34.7486 6.00013 31.4551 6 27.9814V8.29004L6.00586 8.15918C6.06184 7.51394 6.52941 6.97059 7.1709 6.82617L23.6699 3.11133Z" stroke="currentColor" stroke-width="3" stroke-linecap="round" stroke-linejoin="round"/>
<path d="M18.6191 18.6191L29.3801 29.3801M18.6191 29.3798L29.3801 18.6188" stroke="currentColor" stroke-width="3" stroke-linecap="round"/>
</svg>
