<svg xmlns="http://www.w3.org/2000/svg" width="48" height="48" viewBox="0 0 48 48" fill="none" stroke="currentColor" stroke-width="3"><path d="M13.375 41.089c-7.396-4.27-9.93-13.727-5.66-21.122l9.092-15.748a1.5 1.5 0 0 1 2.049-.549l4.707 2.718a1.5 1.5 0 0 1 .549 2.049l-9.092 15.748a7.03 7.03 0 0 0 2.572 9.6 7.03 7.03 0 0 0 9.599-2.572l9.092-15.748a1.5 1.5 0 0 1 2.049-.549l4.707 2.718a1.5 1.5 0 0 1 .549 2.049l-9.092 15.748c-4.27 7.396-13.727 9.93-21.122 5.66z"/><path d="M21.295 13.844l-7.553-4.361m27.465 15.858l-7.553-4.361"/></svg>