<svg width="49" height="48" viewBox="0 0 49 48" fill="none" xmlns="http://www.w3.org/2000/svg">
<path d="M13.5861 23.4725C22.2509 25.6141 26.8809 25.5637 34.8517 23.3953" stroke="currentColor" stroke-width="3" stroke-linecap="round" stroke-linejoin="round"/>
<path fill-rule="evenodd" clip-rule="evenodd" d="M35.7929 40.6672C35.5305 39.55 35.208 38.1765 34.3637 37.3322C33.5195 36.488 32.1459 36.1654 31.0287 35.903C30.012 35.6643 29.2075 35.4754 29.2075 34.9884C29.2075 34.5015 30.012 34.3125 31.0287 34.0738C32.1459 33.8114 33.5194 33.4888 34.3637 32.6446C35.208 31.8003 35.5305 30.4268 35.7929 29.3096C36.0316 28.2929 36.2206 27.4884 36.7075 27.4884C37.1945 27.4884 37.3834 28.2929 37.6222 29.3096C37.8845 30.4268 38.2071 31.8003 39.0513 32.6446C39.8956 33.4888 41.2691 33.8114 42.3863 34.0738C43.4031 34.3125 44.2075 34.5015 44.2075 34.9884C44.2075 35.4754 43.4031 35.6643 42.3863 35.903C41.2691 36.1654 39.8956 36.488 39.0513 37.3322C38.2071 38.1765 37.8845 39.55 37.6222 40.6672C37.3834 41.6839 37.1945 42.4884 36.7075 42.4884C36.2206 42.4884 36.0316 41.6839 35.7929 40.6672Z" fill="currentColor"/>
<path d="M26.7922 36.2686H24.219C15.4621 36.2686 7.81852 30.3341 5.64841 21.8503L5.59588 21.645L13.9586 13.2647C14.9381 12.2831 16.2679 11.7314 17.6546 11.7314C18.8871 11.7314 20.0799 12.1674 21.0219 12.9623L22.8643 14.5168C23.6467 15.1771 24.7912 15.1771 25.5737 14.5168L27.4161 12.9623C28.358 12.1674 29.5508 11.7314 30.7833 11.7314C32.1701 11.7314 33.4999 12.2831 34.4794 13.2647L42.8421 21.645L42.4673 23.4763C42.0942 25.2998 41.4195 26.9974 40.5016 28.5214" stroke="currentColor" stroke-width="3" stroke-linecap="round" stroke-linejoin="round"/>
</svg>
