<svg width="48" height="48" viewBox="0 0 48 48" fill="none" xmlns="http://www.w3.org/2000/svg"><path d="M10.3167 14.4457L11.0458 13.6766C12.9019 11.7185 16.0099 11.6841 17.9089 13.6005C18.8479 14.5481 19.3747 15.8282 19.3747 17.1622V28.3044M18.7987 19.6184H12.9442C10.5426 19.6184 8.5957 21.5861 8.5957 24.0133C8.5957 26.6358 10.8536 28.6746 13.4321 28.3804L14.2405 28.2882C16.9121 27.9833 19.0262 25.863 19.3484 23.1653L19.3747 22.9448" stroke="currentColor" stroke-width="3" stroke-linecap="round" stroke-linejoin="round"/><path d="M40.0273 13.8191V30.4677C40.0273 35.7794 32.2654 37.6153 28.6112 33.7603M40.0273 20.3191C40.0273 23.9089 37.1172 26.8191 33.5273 26.8191C29.9375 26.8191 27.0273 23.9089 27.0273 20.3191C27.0273 16.7292 29.9375 13.8191 33.5273 13.8191C37.1172 13.8191 40.0273 16.7292 40.0273 20.3191Z" stroke="currentColor" stroke-width="3" stroke-linecap="round"/></svg>