<svg xmlns="http://www.w3.org/2000/svg" width="48" height="48" viewBox="0 0 48 48" fill="none"><g clip-path="url(#A)"><circle cx="24" cy="24" r="22.5" stroke="currentColor" stroke-width="3"/><g fill="currentColor"><path fill-rule="evenodd" d="M21.643 10.415c-4.155 0-7.524 3.368-7.524 7.524 0 2.153.905 4.095 2.354 5.466-3.721 1.888-6.273 5.751-6.273 10.211 0 .908.736 1.645 1.645 1.645s1.645-.736 1.645-1.645c0-4.503 3.65-8.153 8.153-8.153s8.153 3.65 8.153 8.153c0 .908.736 1.645 1.645 1.645s1.645-.736 1.645-1.645c0-4.46-2.552-8.323-6.273-10.211 1.449-1.371 2.354-3.313 2.354-5.466 0-4.155-3.368-7.524-7.523-7.524zm-4.234 7.524c0-2.339 1.896-4.234 4.234-4.234s4.234 1.896 4.234 4.234-1.896 4.234-4.234 4.234-4.234-1.896-4.234-4.234z"/><path d="M32.271 11.836c-.654-.63-1.695-.611-2.326.043s-.611 1.695.043 2.326c.88.848 1.456 2.104 1.456 3.534 0 1.419-.568 2.668-1.437 3.516a1.64 1.64 0 0 0-.228.264l-.032.047c-.23.356-.309.78-.237 1.182.041.229.13.45.269.649a1.64 1.64 0 0 0 .411.411c.097.068.2.124.307.168 2.948 1.299 5.108 4.47 5.108 8.263 0 .908.736 1.645 1.645 1.645s1.645-.736 1.645-1.645c0-4.288-2.084-8.106-5.294-10.288.722-1.229 1.133-2.675 1.133-4.212 0-2.32-.937-4.432-2.463-5.902z"/></g></g><defs><clipPath id="A"><path fill="#fff" d="M0 0h48v48H0z"/></clipPath></defs></svg>