<svg width="48" height="48" viewBox="0 0 48 48" fill="none" xmlns="http://www.w3.org/2000/svg"><path d="M40.0117 9.53125C41.9447 9.53125 43.5117 11.0983 43.5117 13.0312V34.9688C43.5117 36.9018 41.9447 38.4687 40.0117 38.4688H7.98828C6.05529 38.4687 4.48828 36.9017 4.48828 34.9688V13.0312C4.48828 11.0983 6.05529 9.53125 7.98828 9.53125H40.0117Z" stroke="currentColor" stroke-width="3"/><path d="M30.9531 24C30.9531 27.8401 27.8401 30.9531 24 30.9531C20.1599 30.9531 17.0469 27.8401 17.0469 24C17.0469 20.1599 20.1599 17.0469 24 17.0469C27.8401 17.0469 30.9531 20.1599 30.9531 24Z" fill="currentColor"/><path d="M13.9375 37.9375C13.9375 36.8936 13.7319 35.8599 13.3324 34.8955C12.9329 33.931 12.3474 33.0547 11.6092 32.3166C10.8711 31.5784 9.99476 30.9929 9.03032 30.5934C8.06587 30.1939 7.03219 29.9883 5.98828 29.9883L5.98828 37.9375H13.9375Z" fill="currentColor"/><path d="M34.0625 37.9375C34.0625 36.8936 34.2681 35.8599 34.6676 34.8955C35.0671 33.931 35.6526 33.0547 36.3908 32.3166C37.1289 31.5784 38.0052 30.9929 38.9697 30.5934C39.9341 30.1939 40.9678 29.9883 42.0117 29.9883V37.9375H34.0625Z" fill="currentColor"/><path d="M13.9375 10.082C13.9375 11.1259 13.7319 12.1596 13.3324 13.1241C12.9329 14.0885 12.3474 14.9648 11.6092 15.703C10.8711 16.4411 9.99476 17.0267 9.03032 17.4262C8.06587 17.8256 7.03219 18.0312 5.98828 18.0312L5.98828 10.082H13.9375Z" fill="currentColor"/><path d="M34.0625 10.082C34.0625 11.1259 34.2681 12.1596 34.6676 13.1241C35.0671 14.0885 35.6526 14.9648 36.3908 15.703C37.1289 16.4411 38.0052 17.0267 38.9697 17.4262C39.9341 17.8256 40.9678 18.0312 42.0117 18.0312V10.082H34.0625Z" fill="currentColor"/></svg>