<svg xmlns="http://www.w3.org/2000/svg" width="48" height="48" viewBox="0 0 48 48" fill="none"><path d="M17.27 16.906H8.571a3.43 3.43 0 0 0-3.429 3.429v18.852a3.43 3.43 0 0 0 3.429 3.429h18.366a3.43 3.43 0 0 0 3.428-3.429v-8.334M17.27 16.906V8.814a3.43 3.43 0 0 1 3.429-3.429h18.731a3.43 3.43 0 0 1 3.428 3.429v18.609a3.43 3.43 0 0 1-3.428 3.429h-9.062M17.27 16.906h9.668a3.43 3.43 0 0 1 3.428 3.428v10.517M17.27 16.906v10.517a3.43 3.43 0 0 0 3.429 3.429h9.668" stroke="currentColor" stroke-width="3" stroke-linecap="round"/><path fill-rule="evenodd" d="M28.084 31.085a2.92 2.92 0 0 0 2.917-2.917v-8.308a2.92 2.92 0 0 0-2.917-2.917H20.19a2.92 2.92 0 0 0-2.917 2.917v8.308a2.92 2.92 0 0 0 2.917 2.917h7.894z" fill="currentColor"/></svg>