<svg width="48" height="48" viewBox="0 0 48 48" fill="none" xmlns="http://www.w3.org/2000/svg">
<path fill-rule="evenodd" clip-rule="evenodd" d="M24.001 4.5C34.77 4.50022 43.4998 13.2301 43.5 23.999C43.5 34.7682 34.7702 43.4988 24.001 43.499C13.2316 43.499 4.50098 34.7683 4.50098 23.999C4.50122 13.2299 13.2317 4.5 24.001 4.5Z" fill="#262627" fill-opacity="0.7"/>
<path d="M18.3282 31.6517V16.3482C18.3282 15.9064 18.6864 15.5482 19.1282 15.5482H21.5409C21.9827 15.5482 22.3409 15.9064 22.3409 16.3482V31.6517C22.3409 32.0935 21.9827 32.4517 21.5409 32.4517H19.1282C18.6864 32.4517 18.3282 32.0935 18.3282 31.6517Z" fill="white"/>
<path d="M25.6599 31.6517V16.3474C25.6599 15.9055 26.0181 15.5474 26.4599 15.5474H28.8726C29.3144 15.5474 29.6726 15.9055 29.6726 16.3474V31.6517C29.6726 32.0935 29.3144 32.4517 28.8726 32.4517H26.4599C26.0181 32.4517 25.6599 32.0935 25.6599 31.6517Z" fill="white"/>
</svg>
