<svg width="48" height="48" viewBox="0 0 48 48" fill="none" xmlns="http://www.w3.org/2000/svg"><path d="M21.6133 19.0723L21.834 19.1006C24.8701 19.6698 28.9696 20.5383 32.6943 21.6573C34.5572 22.2169 36.2976 22.8311 37.7519 23.4893C39.2323 24.1593 40.3018 24.8253 40.9199 25.4434C43.0248 27.5483 44.0423 30.327 43.9707 33.088L43.9424 33.6397C43.908 34.0772 44.0667 34.5081 44.3769 34.8184C44.9056 35.3472 44.9057 36.2047 44.3769 36.7335L37.4639 43.6465C36.9351 44.1753 36.0776 44.1752 35.5488 43.6465C35.2774 43.3751 34.9138 43.2197 34.5342 43.2081L34.3701 43.212C31.4309 43.4432 28.419 42.4347 26.1738 40.1895C25.5557 39.5714 24.8897 38.5019 24.2197 37.0215C23.5615 35.5672 22.9473 33.8268 22.3877 31.9639C21.4086 28.7048 20.6214 25.1586 20.0586 22.2891L19.831 21.1036C19.7247 20.5364 19.8846 20.0289 20.1973 19.6612L20.3408 19.5118C20.6644 19.2139 21.1079 19.0371 21.6133 19.0723Z" stroke="currentColor" stroke-width="3" stroke-linejoin="round"/><path d="M20.0022 19.4176L33.6923 33.1077" stroke="currentColor" stroke-width="3" stroke-linejoin="round"/><path d="M31.5374 30.807C32.291 30.0534 33.5122 30.0535 34.2659 30.807C35.0195 31.5606 35.0195 32.7818 34.2659 33.5355C33.5123 34.2891 32.291 34.2891 31.5374 33.5355C30.7839 32.7818 30.7838 31.5606 31.5374 30.807Z" fill="currentColor" stroke="currentColor" stroke-width="3"/><path d="M6.38047 34.4469C5.81635 19.1354 18.3808 6.57091 33.6923 7.13502" stroke="currentColor" stroke-width="3"/><path d="M35.0315 5.36854C36.2866 4.11338 38.322 4.11288 39.5772 5.36784C40.8325 6.6231 40.8325 8.65906 39.5772 9.91432C38.322 11.1693 36.2866 11.1688 35.0315 9.91363C33.7766 8.65845 33.7766 6.62372 35.0315 5.36854Z" fill="currentColor" stroke="currentColor" stroke-width="3"/><path d="M4.40777 35.7618C5.66293 34.5067 7.69828 34.5062 8.95356 35.7612C10.2088 37.0164 10.2088 39.0524 8.95356 40.3076C7.69828 41.5626 5.66293 41.5621 4.40777 40.3069C3.15291 39.0518 3.15291 37.017 4.40777 35.7618Z" fill="currentColor" stroke="currentColor" stroke-width="3"/></svg>