<svg xmlns="http://www.w3.org/2000/svg" width="48" height="48" viewBox="0 0 48 48" fill="currentColor" fill-rule="evenodd"><path d="M5.072 18.254a1.5 1.5 0 0 1 2.081.411c3.903 5.825 9.989 9.494 16.752 9.494s12.851-3.671 16.756-9.494a1.5 1.5 0 0 1 2.492 1.671c-4.376 6.525-11.335 10.823-19.248 10.823S9.035 26.863 4.661 20.335a1.5 1.5 0 0 1 .411-2.081z"/><path d="M22.456 36.503v-6.132h3v6.132a1.5 1.5 0 1 1-3 0zM6.494 32.415l5.888-5.888 2.121 2.121-5.888 5.888a1.5 1.5 0 0 1-2.121-2.121zm32.869 2.122l-5.888-5.888 2.121-2.121 5.888 5.888a1.5 1.5 0 1 1-2.121 2.121z"/></svg>