<svg width="48" height="49" viewBox="0 0 48 49" fill="none" xmlns="http://www.w3.org/2000/svg">
<path d="M12.7461 16.4359L20.2461 8.93592" stroke="currentColor" stroke-width="3"/>
<path d="M41.2481 8.93592H5.75003C4.64544 8.93592 3.75 9.83136 3.75 10.936V36.9023C3.75 38.006 4.64409 38.9011 5.74781 38.9024L41.2447 38.9418C42.9029 38.9436 44.248 37.6 44.248 35.9418V11.9359C44.248 10.279 42.9049 8.93592 41.2481 8.93592Z" stroke="currentColor" stroke-width="3" stroke-linecap="round"/>
<path d="M3.75 16.4344H44.2483" stroke="currentColor" stroke-width="3"/>
<path d="M27.7456 16.4359L35.2456 8.93592" stroke="currentColor" stroke-width="3"/>
<path d="M16.1645 23.9404C17.9421 26.3338 20.7903 27.8846 24.0007 27.8846C27.2111 27.8846 30.0592 26.3338 31.8369 23.9404M24.0232 31.7932V27.9007M16.4471 30.062L19.4374 27.0718M30.7666 30.0619L27.9518 27.2471" stroke="currentColor" stroke-width="3" stroke-linecap="round"/>
</svg>
