<svg xmlns="http://www.w3.org/2000/svg" width="48" height="48" viewBox="0 0 48 48" fill="none"><path d="M40.413 15.153a5.38 5.38 0 0 1-3.852 1.58c-.313-.002-.623.102-.844.324-.409.409-.409 1.071 0 1.48l7.506 7.506a1.15 1.15 0 0 1 0 1.629l-4.596 4.596c-.503.503-1.194.771-1.905.739-1.31-.059-2.358-1.107-2.417-2.417l-.05-1.115c-.162-.724-.524-1.413-1.088-1.977a4.05 4.05 0 0 0-5.723 0 4.05 4.05 0 0 0 0 5.723 4.03 4.03 0 0 0 2.139 1.121l1.278.24c.999.188 1.78.969 1.967 1.967.15.8-.104 1.622-.679 2.197l-4.585 4.585c-.384.384-1.007.384-1.391 0l-7.603-7.603a1.08 1.08 0 0 0-1.525 0c-.228.228-.336.547-.335.869a5.38 5.38 0 0 1-1.58 3.837c-2.107 2.107-5.523 2.107-7.63 0s-2.107-5.523 0-7.63a5.38 5.38 0 0 1 3.978-1.578c.312.009.622-.092.843-.312.396-.396.396-1.039 0-1.436L4.763 21.92a1.11 1.11 0 0 1 0-1.568l4.701-4.701c.454-.454 1.083-.686 1.723-.636 1.078.084 1.934.94 2.018 2.018l.079 1.008a4.03 4.03 0 0 0 1.121 2.139 4.05 4.05 0 0 0 5.723 0 4.05 4.05 0 0 0 0-5.723c-.564-.564-1.252-.926-1.977-1.088l-1.158-.201c-.942-.164-1.68-.901-1.843-1.843-.126-.726.109-1.468.63-1.989l4.663-4.663a1 1 0 0 1 1.412 0l7.66 7.66c.384.384 1.007.384 1.391 0 .214-.214.312-.514.302-.816a5.38 5.38 0 0 1 1.577-3.993c2.107-2.107 5.523-2.107 7.63 0s2.107 5.523 0 7.63z" stroke="currentColor" stroke-width="3" stroke-linejoin="round"/></svg>