<svg xmlns="http://www.w3.org/2000/svg" width="48" height="48" viewBox="0 0 48 48" fill="none">
  <rect x="4" y="9.02496" width="40" height="29.9501" rx="3" stroke="currentColor" stroke-width="3" stroke-linecap="round"/>
  <path d="M25.0826 18.6082C25.0826 19.2295 24.579 19.7332 23.9576 19.7332C23.3363 19.7332 22.8326 19.2295 22.8326 18.6082C22.8326 17.9868 23.3363 17.4832 23.9576 17.4832C24.579 17.4832 25.0826 17.9868 25.0826 18.6082Z" fill="currentColor" stroke="currentColor" stroke-width="3" stroke-linecap="round"/>
  <path d="M25.0826 29.8582C25.0826 30.4795 24.579 30.9832 23.9576 30.9832C23.3363 30.9832 22.8326 30.4795 22.8326 29.8582C22.8326 29.2368 23.3363 28.7332 23.9576 28.7332C24.579 28.7332 25.0826 29.2368 25.0826 29.8582Z" fill="currentColor" stroke="currentColor" stroke-width="3" stroke-linecap="round"/>
  <path d="M13.6274 31.7975L13.6274 16.2024L10.0613 19.2719" stroke="currentColor" stroke-width="3" stroke-linecap="round" stroke-linejoin="round"/>
  <path d="M36.748 31.7975L36.748 16.2024L33.1819 19.2719" stroke="currentColor" stroke-width="3" stroke-linecap="round" stroke-linejoin="round"/>
</svg>
