<svg width="48" height="48" viewBox="0 0 48 48" fill="none" xmlns="http://www.w3.org/2000/svg"><path d="M38.4687 39.7236C38.4687 41.9045 35.8712 43.0397 34.2705 41.5586L30.8242 38.3691C30.6326 38.1919 30.3362 38.1919 30.1445 38.3691L25.6982 42.4844C24.74 43.3711 23.26 43.3711 22.3018 42.4844L17.8555 38.3691C17.6638 38.1919 17.3674 38.1919 17.1758 38.3691L13.7295 41.5586C12.1288 43.0397 9.53125 41.9044 9.53125 39.7236L9.53125 7.98828C9.53125 6.05528 11.0983 4.48828 13.0313 4.48828L34.9688 4.48828C36.9017 4.48828 38.4687 6.05528 38.4687 7.98828L38.4687 39.7236Z" stroke="currentColor" stroke-width="3"/><path d="M18.2168 20.1924L22.4638 24.0001L31.9692 14.4946" stroke="currentColor" stroke-width="3" stroke-linecap="round" stroke-linejoin="round"/><path d="M16.3438 32H31.9688" stroke="currentColor" stroke-width="3" stroke-linecap="round" stroke-linejoin="round"/></svg>