<svg xmlns="http://www.w3.org/2000/svg" width="48" height="48" viewBox="0 0 48 48" fill="none"><rect x="4.5" y="4.5" width="39" height="39" rx="1.5" stroke="currentColor" stroke-width="3"/><path d="M29.636 24.112l-7.46-5.512c-.99-.731-2.391-.025-2.391 1.207v11.024c0 1.231 1.401 1.938 2.391 1.206l7.461-5.512a1.5 1.5 0 0 0 0-2.413zm2.181-14.38a1.24 1.24 0 0 1 2.239 0l1.236 2.649c.123.263.334.474.597.597l2.649 1.236a1.24 1.24 0 0 1 0 2.239l-2.649 1.236c-.263.123-.474.334-.597.597l-1.236 2.649a1.24 1.24 0 0 1-2.239 0l-1.236-2.649c-.123-.263-.334-.474-.597-.597l-2.649-1.236a1.24 1.24 0 0 1 0-2.239l2.649-1.236c.263-.123.474-.334.597-.597l1.236-2.649z" fill="currentColor"/></svg>