<svg xmlns="http://www.w3.org/2000/svg" width="48" height="48" viewBox="0 0 48 48" fill="none" stroke="currentColor" stroke-width="3"><path d="M7.852 17.502V42a1.5 1.5 0 0 0 1.5 1.5H38.66a1.5 1.5 0 0 0 1.5-1.5V17.502"/><path d="M7.854 27.251h11.423a1.5 1.5 0 0 1 1.5 1.5v3.5a1.5 1.5 0 0 1-1.5 1.5H7.854M5.735 5.662A1.5 1.5 0 0 1 7.197 4.5H40.81a1.5 1.5 0 0 1 1.462 1.163l2.308 9.999a1.5 1.5 0 0 1-1.462 1.837H4.889a1.5 1.5 0 0 1-1.462-1.837l2.308-9.999z"/><path d="M30.466 19.012v24.373" stroke-linecap="round"/></svg>