<svg xmlns="http://www.w3.org/2000/svg" width="48" height="48" viewBox="0 0 48 48" fill="none"><g clip-path="url(#A)" fill="currentColor"><path d="M24.003 10.271c1.868 0 1.561 6.276 4.5 9.225 2.945 2.942 9.215 2.635 9.215 4.505s-6.269 1.563-9.215 4.505c-2.939 2.949-2.632 9.225-4.5 9.225s-1.561-6.276-4.5-9.225c-2.945-2.942-9.215-2.635-9.215-4.504s6.269-1.563 9.215-4.504c2.939-2.949 2.632-9.225 4.5-9.225z"/><g fill-rule="evenodd"><path d="M24.001 3.427c6.794 0 12.821 3.28 16.587 8.349.564.76 1.638.919 2.398.354s.919-1.638.354-2.398C38.956 3.829 31.925-.001 24.001-.001S9.046 3.829 4.661 9.732c-.565.76-.406 1.834.354 2.398s1.834.406 2.398-.354C11.178 6.706 17.206 3.427 24 3.427zm0 41.146c6.794 0 12.821-3.279 16.587-8.349.564-.76 1.638-.919 2.398-.354s.919 1.638.354 2.398c-4.385 5.903-11.415 9.734-19.339 9.734s-14.955-3.83-19.339-9.733c-.565-.76-.406-1.834.354-2.398s1.834-.406 2.398.354c3.765 5.07 9.793 8.349 16.587 8.349z"/></g></g><defs><clipPath id="A"><path fill="#fff" d="M0 0h48v48H0z"/></clipPath></defs></svg>