<svg width="48" height="48" viewBox="0 0 48 48" fill="none" xmlns="http://www.w3.org/2000/svg">
<path d="M22.6595 4.74904C23.213 3.64615 24.7873 3.64614 25.3408 4.74904L30.0083 14.0493C30.6631 15.354 31.9101 16.26 33.3533 16.4796L43.6407 18.0448C44.8607 18.2304 45.3472 19.7276 44.4693 20.5948L37.0666 27.9079C36.0281 28.9338 35.5518 30.3998 35.7889 31.8402L37.4793 42.1078C37.6798 43.3254 36.4062 44.2507 35.3101 43.6838L26.0675 38.9033C24.7709 38.2326 23.2295 38.2326 21.9328 38.9033L12.6902 43.6838C11.5941 44.2507 10.3205 43.3254 10.521 42.1078L12.2114 31.8402C12.4486 30.3998 11.9722 28.9338 10.9337 27.9079L3.53105 20.5948L2.4941 21.6445L3.53105 20.5948C2.65317 19.7276 3.13965 18.2304 4.3596 18.0448L14.647 16.4796C16.0902 16.26 17.3372 15.354 17.992 14.0493L22.6595 4.74904Z" stroke="currentColor" stroke-width="3"/>
</svg>
