<svg xmlns="http://www.w3.org/2000/svg" width="48" height="48" viewBox="0 0 48 48" fill="none"><path d="M4.264 27a1.75 1.75 0 1 0 3.5 0h-3.5zm13.75-10.25h22.233v-3.5H18.014v3.5zM7.764 27c0-5.661 4.589-10.25 10.25-10.25v-3.5c-7.594 0-13.75 6.156-13.75 13.75h3.5z" fill="currentColor"/><path d="M35.226 9.689l4.244 4.25a1.5 1.5 0 0 1-.001 2.122l-4.252 4.252" stroke="currentColor" stroke-width="3" stroke-linecap="round"/><path d="M42.275 22.5a1.75 1.75 0 1 0-3.5 0h3.5zm-13.75 10.25H6.868v3.5h21.657v-3.5zm10.25-10.25c0 5.661-4.589 10.25-10.25 10.25v3.5c7.594 0 13.75-6.156 13.75-13.75h-3.5z" fill="currentColor"/><path d="M11.328 39.811l-4.244-4.25a1.5 1.5 0 0 1 .001-2.122l4.252-4.252" stroke="currentColor" stroke-width="3" stroke-linecap="round"/></svg>