<svg width="48" height="48" viewBox="0 0 48 48" fill="none" xmlns="http://www.w3.org/2000/svg">
<path d="M37.1917 19.4375V15.6306C37.1917 14.95 36.9603 14.2896 36.5354 13.7579L30.6382 6.37732C30.0689 5.66484 29.2065 5.25 28.2945 5.25H10.0042C8.45088 5.25 7.19168 6.5092 7.19168 8.0625V39.9375C7.19168 41.4908 8.45088 42.75 10.0042 42.75H17.3792M15.2545 18.8091V15.5563H22.2974M29.3403 18.8091V15.5563H22.2974M22.2974 15.5563V29.4691M22.2974 29.4691H20.0354M22.2974 29.4691H24.6107M28.9702 41.987L25.8658 42.707C24.6999 42.9774 23.6551 41.9301 23.9283 40.7649L24.6526 37.6748C24.6988 37.4778 24.7995 37.2978 24.9433 37.1554L35.802 26.4028C36.4337 25.7772 37.4521 25.7797 38.0807 26.4083L40.3352 28.6628C40.968 29.2956 40.9657 30.3222 40.3302 30.9521L29.485 41.7028C29.3431 41.8435 29.1649 41.9419 28.9702 41.987Z" stroke="currentColor" stroke-width="3" stroke-linecap="round" stroke-linejoin="round"/>
</svg>
