<svg xmlns="http://www.w3.org/2000/svg" width="48" height="48" viewBox="0 0 48 48" fill="none"><g clip-path="url(#A)"><g fill="#25f4ee"><path d="M19.683 19.22v-1.756a13.62 13.62 0 0 0-1.839-.133c-7.523 0-13.644 6.121-13.644 13.645 0 4.617 2.306 8.702 5.825 11.171a13.59 13.59 0 0 1-3.664-9.291A13.66 13.66 0 0 1 19.684 19.22h-.001zm.322 19.868c3.357 0 6.095-2.671 6.219-5.997l.012-29.709h5.427a10.33 10.33 0 0 1-.175-1.882h-7.413l-.012 29.709c-.124 3.326-2.863 5.997-6.219 5.997a6.19 6.19 0 0 1-2.891-.716 6.22 6.22 0 0 0 5.051 2.597zm21.797-25.623v-1.651c-2.07 0-3.999-.615-5.617-1.671 1.44 1.654 3.397 2.847 5.617 3.322z"/></g><g fill="#fe2c55"><path d="M36.187 10.143c-1.578-1.812-2.536-4.176-2.536-6.762h-1.986c.523 2.824 2.199 5.248 4.522 6.762zm-18.343 14.6a6.24 6.24 0 0 0-6.232 6.232c0 2.393 1.358 4.472 3.341 5.515a6.19 6.19 0 0 1-1.18-3.635 6.24 6.24 0 0 1 6.232-6.232c.641 0 1.256.106 1.839.288v-7.568a13.62 13.62 0 0 0-1.839-.133l-.322.008v5.812c-.582-.182-1.198-.288-1.839-.288l-.001.001zm23.958-11.278v5.761a17.63 17.63 0 0 1-10.313-3.316v15.066c0 7.524-6.121 13.644-13.644 13.644-2.908 0-5.603-.917-7.82-2.473 2.492 2.676 6.043 4.354 9.98 4.354 7.524 0 13.644-6.121 13.644-13.644V17.791a17.63 17.63 0 0 0 10.313 3.316v-7.414c-.742 0-1.464-.08-2.16-.229z"/></g><path d="M31.489 30.976V15.91a17.63 17.63 0 0 0 10.313 3.316v-5.761c-2.22-.475-4.176-1.667-5.617-3.322a10.33 10.33 0 0 1-4.522-6.762h-5.427l-.012 29.709c-.124 3.327-2.863 5.997-6.219 5.997a6.22 6.22 0 0 1-5.051-2.597c-1.983-1.044-3.341-3.123-3.341-5.515a6.24 6.24 0 0 1 6.232-6.232c.641 0 1.256.106 1.839.288v-5.812c-7.375.173-13.323 6.221-13.323 13.637a13.59 13.59 0 0 0 3.664 9.291c2.216 1.555 4.912 2.473 7.82 2.473 7.523 0 13.644-6.121 13.644-13.644v.001z" fill="#000"/></g><defs><clipPath id="A"><path fill="#fff" transform="translate(4.2 1.5)" d="M0 0h39.764v45H0z"/></clipPath></defs></svg>