<svg xmlns="http://www.w3.org/2000/svg" width="48" height="48" viewBox="0 0 48 48" fill="none"><rect x="10.459" y="2.974" width="27.083" height="42.052" rx="4.929" stroke="currentColor" stroke-width="3" stroke-linejoin="round"/><path d="M27.692 14.624c0 2.589 2.125 4.688 4.747 4.688v3.125a7.94 7.94 0 0 1-4.747-1.562v6.511c0 3.308-2.716 5.99-6.065 5.99s-6.065-2.682-6.065-5.99 2.716-5.99 6.065-5.99c.268 0 .532.017.791.051v3.182l-.107-.028c-.218-.052-.447-.08-.684-.08-1.602 0-2.901 1.283-2.901 2.865s1.299 2.865 2.901 2.865 2.901-1.283 2.901-2.865V14.624h3.165z" fill="currentColor"/></svg>