<svg xmlns="http://www.w3.org/2000/svg" width="48" height="48" viewBox="0 0 48 48" fill="none" stroke="currentColor" stroke-width="3"><path d="M17.563 36.579h12.869V42.2a2.8 2.8 0 0 1-2.8 2.8h-7.269a2.8 2.8 0 0 1-2.8-2.8v-5.621z"/><path d="M24 3C15.716 3 9 9.582 9 17.701c0 3.878 1.532 7.405 4.035 10.032 2.363 2.479 4.536 5.444 4.536 8.869h0 12.857 0c0-3.425 2.173-6.39 4.536-8.869C37.468 25.106 39 21.579 39 17.701 39 9.582 32.284 3 24 3z"/><path d="M27 9.512c1.118.395 2.134 1.005 3 1.78A9.01 9.01 0 0 1 32.488 15" stroke-linecap="round"/></svg>