<svg xmlns="http://www.w3.org/2000/svg" width="48" height="48" viewBox="0 0 48 48" fill="none"><path d="M36.325 13.497h2.787a3.43 3.43 0 0 1 3.429 3.429v12.539a3.43 3.43 0 0 1-3.429 3.429h-2.787m0-19.396v-1.467a3.43 3.43 0 0 0-3.429-3.429h-4.255m7.684 4.896v19.396M28.642 8.601v-.549a3.43 3.43 0 0 0-3.428-3.429H8.818a3.43 3.43 0 0 0-3.429 3.429v32.326a3 3 0 0 0 3 3h16.824a3.43 3.43 0 0 0 3.428-3.429v-.75m0-30.598v30.598m0 0h4.255a3.43 3.43 0 0 0 3.429-3.429v-2.877" stroke="currentColor" stroke-width="3" stroke-linejoin="round"/><path d="M22.651 22.814l-7.336-5.42c-.974-.719-2.351-.024-2.351 1.186v10.84c0 1.21 1.378 1.906 2.351 1.186l7.336-5.42c.798-.59.798-1.783 0-2.372z" fill="currentColor"/></svg>