<svg xmlns="http://www.w3.org/2000/svg" width="48" height="48" viewBox="0 0 48 48" fill="none"><path d="M31.502 37.5L25.77 19.952l-2.866-8.774M31.502 37.5H19.949m11.553 0l-5.076 8.577m-3.522-34.899l-2.094-6.41a3.43 3.43 0 0 0-3.259-2.364H6.224a3.43 3.43 0 0 0-3.429 3.429v28.239A3.43 3.43 0 0 0 6.224 37.5h13.725m2.954-26.322h19.085a3.43 3.43 0 0 1 3.429 3.428v28.042a3.43 3.43 0 0 1-3.429 3.428H26.426m0 0L19.949 37.5" stroke="currentColor" stroke-width="3" stroke-linejoin="round"/><path d="M38.54 24.781l1.878.543c-1.849 5.282-5.267 8.363-10.52 10.007-.205-.44-.763-1.291-1.115-1.717 5.077-1.335 8.231-4.05 9.757-8.833zm-5.664.117c1.482 4.343 4.651 7.468 9.875 8.642-.425.411-.998 1.247-1.276 1.761-5.502-1.438-8.525-4.798-10.359-9.875l1.761-.528zm-3.829-1.071h13.44v1.731h-13.44v-1.731zm5.766-2.318h1.819v3.375h-1.819v-3.375zM7.296 24.241l4.119-13.021h3.989l4.137 13.021h-2.9l-3.158-11.359h-.111l-3.177 11.359h-2.9zm2.992-3.084v-2.179h6.261v2.179h-6.261z" fill="currentColor"/></svg>