<svg width="49" height="48" viewBox="0 0 49 48" fill="none" xmlns="http://www.w3.org/2000/svg">
<path d="M23.8887 3.11133C24.1055 3.0625 24.331 3.06252 24.5479 3.11133L41.0479 6.82617C41.7321 6.98029 42.2178 7.58864 42.2178 8.29004V27.9814C42.2176 31.4551 40.3469 34.7486 37.1475 36.7295L25.0078 44.2461C24.5241 44.5455 23.9124 44.5456 23.4287 44.2461L11.2891 36.7295C8.08965 34.7486 6.21888 31.4551 6.21875 27.9814V8.29004L6.22461 8.15918C6.28059 7.51394 6.74816 6.97059 7.38965 6.82617L23.8887 3.11133Z" stroke="currentColor" stroke-width="3" stroke-linecap="round" stroke-linejoin="round"/>
<line x1="24.4705" y1="14.0823" x2="24.4705" y2="27.3085" stroke="currentColor" stroke-width="3" stroke-linecap="round"/>
<line x1="24.4705" y1="33.7135" x2="24.4705" y2="33.8525" stroke="currentColor" stroke-width="3" stroke-linecap="round"/>
</svg>
