<svg width="48" height="48" viewBox="0 0 48 48" fill="none" xmlns="http://www.w3.org/2000/svg"><path d="M25.1993 25.5274H25.4853C29.635 25.5274 32.999 22.1634 32.999 18.0137C32.999 13.864 29.635 10.5 25.4853 10.5L10.1042 10.5C6.03019 10.5 2.72754 13.8027 2.72754 17.8767L2.72754 18.0137C2.72754 22.1634 6.09154 25.5274 10.2412 25.5274H10.7722" stroke="currentColor" stroke-width="3" stroke-linecap="round" stroke-linejoin="round"/><path d="M37.1993 20.9717L37.4853 20.9717C41.635 20.9717 44.999 24.3357 44.999 28.4854C44.999 32.6351 41.635 35.9991 37.4853 35.9991L22.1042 35.9991C18.0302 35.9991 14.7275 32.6964 14.7275 28.6224L14.7275 28.4854C14.7275 24.3357 18.0915 20.9717 22.2412 20.9717L22.7722 20.9717" stroke="currentColor" stroke-width="3" stroke-linecap="round" stroke-linejoin="round"/><path d="M9.08105 37.3911L39.4121 7.06055" stroke="currentColor" stroke-width="3" stroke-linecap="round"/></svg>