<svg xmlns="http://www.w3.org/2000/svg" width="48" height="48" viewBox="0 0 48 48" fill="none"><path d="M8.71 17.274v14.69m19.757-11.696v8.701m9.878-4.054v13.088M18.588 7.128V42.11" stroke="currentColor" stroke-width="3" stroke-linecap="round"/><path d="M37.623 4.082zm.722 2.249c.342 1.059.873 2.348 1.838 3.31s2.252 1.496 3.31 1.838c-1.059.342-2.348.873-3.31 1.838s-1.496 2.252-1.838 3.31c-.342-1.059-.873-2.348-1.838-3.31s-2.252-1.496-3.31-1.838c1.059-.342 2.348-.873 3.31-1.838s1.496-2.252 1.838-3.31zm-7.397 4.426zm.002 1.442zm6.673 6.677zm1.442-.002zm6.677-6.673zm-.002-1.442zm-6.675-6.675z" fill="currentColor"/></svg>