<svg xmlns="http://www.w3.org/2000/svg" width="48" height="48" viewBox="0 0 48 48" fill="none" stroke="currentColor" stroke-width="3"><path d="M10.459 15.957a2.96 2.96 0 0 0-2.958 2.958v11.01a2.96 2.96 0 0 0 2.958 2.958h4.143a1.97 1.97 0 0 1 1.441.625l8.751 9.363c1.222 1.307 3.413.443 3.413-1.347V6.476c0-1.828-2.272-2.672-3.466-1.287l-8.692 10.084a1.97 1.97 0 0 1-1.494.684h-4.096z"/><path d="M34.533 32.418s3.138-3.769 3.138-8.419-3.138-8.419-3.138-8.419m7.096 19.785S44.767 30.277 44.767 24s-3.138-11.366-3.138-11.366" stroke-linecap="round"/></svg>