<svg width="120" height="120" viewBox="0 0 120 120" fill="none" xmlns="http://www.w3.org/2000/svg">
<g clip-path="url(#clip0_65780_215455)">
<ellipse cx="35.0463" cy="84.9507" rx="23.0463" ry="23.0464" fill="#D9D9D9" fill-opacity="0.2" style="fill:#D9D9D9;fill:color(display-p3 0.8510 0.8510 0.8510);fill-opacity:0.2;"/>
<circle cx="4.16667" cy="4.16667" r="4.16667" transform="matrix(-1 0 0 1 103.386 98.4214)" fill="#25F4EE" style="fill:#25F4EE;fill:color(display-p3 0.1451 0.9569 0.9333);fill-opacity:1;"/>
<path d="M12.0002 17.8353C12.0002 21.0569 14.6119 23.6686 17.8336 23.6686C21.0552 23.6686 23.6669 21.0569 23.6669 17.8353C23.6669 14.6136 21.0552 12.002 17.8336 12.002C14.6119 12.002 12.0002 14.6136 12.0002 17.8353Z" fill="#FE3A7B" style="fill:#FE3A7B;fill:color(display-p3 0.9961 0.2275 0.4824);fill-opacity:1;"/>
<path fill-rule="evenodd" clip-rule="evenodd" d="M47.9999 22.0981C47.9999 16.5653 52.485 11.9434 58.0177 11.9434C63.5505 11.9434 68.0356 16.5653 68.0356 22.0981H78.8302V32.7282H37.1914V22.0981H47.9999ZM58.0784 20.9881C60.0395 20.9881 61.6292 19.3983 61.6292 17.4373C61.6292 15.4762 60.0395 13.8864 58.0784 13.8864C56.1173 13.8864 54.5276 15.4762 54.5276 17.4373C54.5276 19.3983 56.1173 20.9881 58.0784 20.9881Z" fill="#FF949B" style="fill:#FF949B;fill:color(display-p3 1.0000 0.5804 0.6078);fill-opacity:1;"/>
<path d="M58.0782 58.7542C58.0782 62.6763 54.8987 65.8558 50.9766 65.8558C47.0545 65.8558 43.8749 62.6763 43.8749 58.7542C43.8749 54.832 47.0545 51.6525 50.9766 51.6525C54.8987 51.6525 58.0782 54.832 58.0782 58.7542Z" fill="#FF949B" style="fill:#FF949B;fill:color(display-p3 1.0000 0.5804 0.6078);fill-opacity:1;"/>
<path d="M85.9322 58.7542C85.9322 62.6763 82.7527 65.8558 78.8306 65.8558C74.9085 65.8558 71.7289 62.6763 71.7289 58.7542C71.7289 54.832 74.9085 51.6525 78.8306 51.6525C82.7527 51.6525 85.9322 54.832 85.9322 58.7542Z" fill="#FF949B" style="fill:#FF949B;fill:color(display-p3 1.0000 0.5804 0.6078);fill-opacity:1;"/>
<path d="M108 58.7542C108 62.6763 104.82 65.8558 100.898 65.8558C96.9759 65.8558 93.7964 62.6763 93.7964 58.7542C93.7964 54.832 96.9759 51.6525 100.898 51.6525C104.82 51.6525 108 54.832 108 58.7542Z" fill="#FF949B" style="fill:#FF949B;fill:color(display-p3 1.0000 0.5804 0.6078);fill-opacity:1;"/>
<path fill-rule="evenodd" clip-rule="evenodd" d="M32.764 32.7775L28.5371 97.3472H78.2029L82.4298 32.7775H32.764ZM29.438 22.125C25.696 22.125 22.596 25.0287 22.3516 28.7628L17.6598 100.434C17.3916 104.53 20.6416 108 24.7462 108H81.5288C85.2709 108 88.3709 105.096 88.6153 101.362L93.3071 29.6906C93.5752 25.5947 90.3253 22.125 86.2206 22.125H29.438Z" fill="#5CD6D2" style="fill:#5CD6D2;fill:color(display-p3 0.3600 0.8400 0.8233);fill-opacity:1;"/>
<path d="M70.8256 22.125C75.2464 22.125 78.8302 25.7088 78.8302 30.1297V32.7282H37.1914V30.1297C37.1914 25.7088 40.7752 22.125 45.196 22.125H70.8256Z" fill="#223E70" style="fill:#223E70;fill:color(display-p3 0.1333 0.2431 0.4392);fill-opacity:1;"/>
<path fill-rule="evenodd" clip-rule="evenodd" d="M74.0559 76.0839L36.8867 76.0854L36.8865 72.5345L74.0558 72.5331L74.0559 76.0839Z" fill="#FFEFC7" style="fill:#FFEFC7;fill:color(display-p3 1.0000 0.9382 0.7792);fill-opacity:1;"/>
<path fill-rule="evenodd" clip-rule="evenodd" d="M57.9142 83.3707L36.8867 83.3715L36.8865 79.8207L57.914 79.8198L57.9142 83.3707Z" fill="#FFEFC7" style="fill:#FFEFC7;fill:color(display-p3 1.0000 0.9382 0.7792);fill-opacity:1;"/>
<path d="M80.2756 65.7077L81.1697 52.0486C83.9399 53.017 85.9271 55.6535 85.9271 58.7542C85.9271 62.1794 83.5022 65.0382 80.2756 65.7077Z" fill="#223E70" style="fill:#223E70;fill:color(display-p3 0.1333 0.2431 0.4392);fill-opacity:1;"/>
</g>
<defs>
<clipPath id="clip0_65780_215455">
<rect width="120" height="120" fill="white" style="fill:white;fill-opacity:1;"/>
</clipPath>
</defs>
</svg>
