<svg preserveAspectRatio="none" width="100%" height="100%" overflow="visible" style="display: block;" viewBox="0 0 21.8272 21.5001" fill="none" xmlns="http://www.w3.org/2000/svg">
<g id="icon">
<path fill-rule="evenodd" clip-rule="evenodd" d="M2.11245 11.3533L3.45292 16.3603L4.94656 15.9597L3.6061 10.9527L2.11245 11.3533ZM1.11229 9.55082C0.312141 9.76541 -0.162833 10.5881 0.0514047 11.3883L1.65048 17.3614C1.86472 18.1616 2.68704 18.6364 3.48719 18.4218L5.94672 17.7622C6.74687 17.5476 7.22185 16.7249 7.00761 15.9247L5.40853 9.95164C5.19429 9.1514 4.37197 8.67663 3.57182 8.89122L1.11229 9.55082Z" fill="var(--fill-0, #87898B)"/>
<path fill-rule="evenodd" clip-rule="evenodd" d="M19.7147 11.3534L18.3742 16.3605L16.8806 15.9599L18.2211 10.9529L19.7147 11.3534ZM20.7149 9.55099C21.515 9.76557 21.99 10.5883 21.7758 11.3885L20.1767 17.3615C19.9624 18.1618 19.1401 18.6365 18.34 18.4219L15.8804 17.7623C15.0803 17.5478 14.6053 16.7251 14.8196 15.9248L16.4186 9.95181C16.6329 9.15157 17.4552 8.6768 18.2553 8.89139L20.7149 9.55099Z" fill="var(--fill-0, #87898B)"/>
<path fill-rule="evenodd" clip-rule="evenodd" d="M10.8617 2C6.72927 2 3.37778 5.35315 3.37778 9.4913C3.37778 10.0436 2.93006 10.4913 2.37778 10.4913C1.82549 10.4913 1.37778 10.0436 1.37778 9.4913C1.37778 4.25022 5.62306 0 10.8617 0C16.1004 0 20.3456 4.25022 20.3456 9.4913C20.3456 10.0436 19.8979 10.4913 19.3456 10.4913C18.7934 10.4913 18.3456 10.0436 18.3456 9.4913C18.3456 5.35315 14.9941 2 10.8617 2Z" fill="var(--fill-0, #87898B)"/>
<path fill-rule="evenodd" clip-rule="evenodd" d="M10.8617 19.5001C13.1434 19.5001 15.186 18.4792 16.5604 16.865C16.9184 16.4445 17.5496 16.3938 17.9701 16.7519C18.3906 17.1099 18.4412 17.741 18.0832 18.1615C16.3453 20.2027 13.7545 21.5001 10.8617 21.5001C10.3094 21.5001 9.86169 21.0523 9.86169 20.5001C9.86169 19.9478 10.3094 19.5001 10.8617 19.5001Z" fill="var(--fill-0, #87898B)"/>
</g>
</svg>
