<svg preserveAspectRatio="none" width="100%" height="100%" overflow="visible" style="display: block;" viewBox="0 0 14.1671 10.208" fill="none" xmlns="http://www.w3.org/2000/svg">
<g id="icon">
<path d="M13.417 4.486L13.4932 4.48991C13.8715 4.52814 14.167 4.84755 14.167 5.236C14.167 5.62446 13.8715 5.94386 13.4932 5.9821L13.417 5.986H0.75C0.335786 5.986 3.16841e-08 5.65022 0 5.236C5.22966e-07 4.82179 0.335787 4.486 0.75 4.486H13.417Z" fill="var(--fill-0, white)"/>
<path d="M13.4171 0L13.4933 0.00390625C13.8717 0.0421397 14.1671 0.361546 14.1671 0.75C14.1671 1.13845 13.8717 1.45786 13.4933 1.49609L13.4171 1.5H0.750123C0.335909 1.5 0.000122817 1.16421 0.000122786 0.75C0.000123309 0.335787 0.33591 3.16841e-08 0.750123 0H13.4171Z" fill="var(--fill-0, white)"/>
<path d="M13.417 8.70805L13.4932 8.71195C13.8715 8.75019 14.167 9.06959 14.167 9.45805C14.167 9.8465 13.8715 10.1659 13.4932 10.2041L13.417 10.208H0.75C0.335786 10.208 3.16841e-08 9.87226 0 9.45805C5.22966e-07 9.04383 0.335787 8.70805 0.75 8.70805H13.417Z" fill="var(--fill-0, white)"/>
</g>
</svg>
