<svg preserveAspectRatio="none" width="100%" height="100%" overflow="visible" style="display: block;" viewBox="0 0 18.7673 20" fill="none" xmlns="http://www.w3.org/2000/svg">
<g id="Vector">
<path fill-rule="evenodd" clip-rule="evenodd" d="M0.737239 13.1073L2.11409 11.7304L3.5283 13.1446L2.15146 14.5215C1.83648 14.8364 2.05956 15.375 2.505 15.375H16.2623C16.7078 15.375 16.9309 14.8364 16.6159 14.5215L15.239 13.1446L16.6532 11.7304L18.0301 13.1073C19.605 14.6822 18.4896 17.375 16.2623 17.375H2.505C0.277747 17.375 -0.837661 14.6822 0.737239 13.1073Z" fill="var(--fill-0, #87898B)"/>
<path fill-rule="evenodd" clip-rule="evenodd" d="M7.73185 16.375C7.73185 17.2725 8.45939 18 9.35684 18C10.2543 18 10.9818 17.2725 10.9818 16.375H12.9818C12.9818 18.377 11.3589 20 9.35684 20C7.35481 20 5.73185 18.377 5.73185 16.375H7.73185Z" fill="var(--fill-0, #87898B)"/>
<path fill-rule="evenodd" clip-rule="evenodd" d="M1.82138 12.4374C1.82138 11.8852 2.2691 11.4374 2.82138 11.4374H15.9463C16.4986 11.4374 16.9463 11.8852 16.9463 12.4374C16.9463 12.9897 16.4986 13.4374 15.9463 13.4374H2.82138C2.2691 13.4374 1.82138 12.9897 1.82138 12.4374Z" fill="var(--fill-0, #87898B)"/>
<path fill-rule="evenodd" clip-rule="evenodd" d="M2.38565 6.99997C2.38565 3.13399 5.51965 0 9.38563 0C13.2516 0 16.3856 3.13399 16.3856 6.99997V13H14.3856V6.99997C14.3856 4.23856 12.147 2 9.38563 2C6.62422 2 4.38565 4.23856 4.38565 6.99997V13H2.38565V6.99997Z" fill="var(--fill-0, #87898B)"/>
</g>
</svg>
