<svg preserveAspectRatio="none" width="100%" height="100%" overflow="visible" style="display: block;" viewBox="0 0 17.4363 20" fill="none" xmlns="http://www.w3.org/2000/svg">
<g id="TikTok Logo Icon">
<path id="Vector" d="M14.8337 4.01068C13.7558 3.30663 12.9789 2.185 12.7361 0.873998C12.6827 0.592377 12.6536 0.301044 12.6536 0H9.21583L9.21097 13.78C9.15271 15.3241 7.88541 16.5623 6.32678 16.5623C5.84123 16.5623 5.38966 16.4409 4.98665 16.2321C4.06895 15.7465 3.43773 14.7851 3.43773 13.6732C3.43773 12.0806 4.73416 10.7842 6.32678 10.7842C6.62297 10.7842 6.90944 10.8327 7.18135 10.9201V8.2253V7.40957C6.89973 7.37072 6.61811 7.34644 6.32678 7.34644C2.83564 7.34644 0 10.1869 0 13.6732C0 15.8145 1.06821 17.7082 2.69968 18.8541C3.72905 19.5776 4.97694 20 6.32678 20C9.81792 20 12.6536 17.1595 12.6536 13.6732V6.68123C14.0034 7.64749 15.6543 8.22044 17.4363 8.22044V5.54989V4.78271C16.4797 4.78271 15.5815 4.49624 14.8337 4.01068Z" fill="var(--fill-0, white)"/>
</g>
</svg>
