<svg preserveAspectRatio="none" width="100%" height="100%" overflow="visible" style="display: block;" viewBox="0 0 63.2431 14.6158" fill="none" xmlns="http://www.w3.org/2000/svg">
<g id="TikTok Text">
<path id="Vector" d="M4.3869e-05 0.0442505H10.8425L9.8471 3.14694H7.03573V14.6157H3.53003V3.14209L0.00489823 3.14694L4.3869e-05 0.0442505Z" fill="var(--fill-0, white)"/>
<path id="Vector_2" d="M28.5987 0.0442505H39.6887L38.6934 3.14209H35.6344V14.6109H32.1238V3.14209L28.5987 3.14694V0.0442505Z" fill="var(--fill-0, white)"/>
<path id="Vector_3" d="M11.4985 4.67545H14.975L14.9702 14.6099H11.5227L11.4985 4.67545Z" fill="var(--fill-0, white)"/>
<path id="Vector_4" d="M16.3526 0H19.8243V6.7832L23.2669 3.40859H27.4135L23.0629 7.63292L27.9379 14.6103H24.1117L20.8585 9.77422L19.8292 10.7745V14.6103H16.3574V0H16.3526Z" fill="var(--fill-0, white)"/>
<path id="Vector_5" d="M51.6578 0H55.1295V6.7832L58.5721 3.40859H62.7187L58.3681 7.63292L63.2431 14.6103H59.4169L56.1637 9.77422L55.1343 10.7745V14.6103H51.6578V0Z" fill="var(--fill-0, white)"/>
<path id="Vector_6" d="M13.2367 3.54024C14.2021 3.54024 14.9847 2.75764 14.9847 1.79225C14.9847 0.826855 14.2021 0.0442505 13.2367 0.0442505C12.2713 0.0442505 11.4887 0.826855 11.4887 1.79225C11.4887 2.75764 12.2713 3.54024 13.2367 3.54024Z" fill="var(--fill-0, white)"/>
<path id="Vector_7" d="M44.2989 2.71301C41.0166 2.71301 38.3509 5.37385 38.3509 8.66106C38.3509 11.9434 41.0117 14.6091 44.2989 14.6091C47.5813 14.6091 50.247 11.9483 50.247 8.66106C50.247 5.37871 47.5861 2.71301 44.2989 2.71301ZM44.2989 11.5501C42.7014 11.5501 41.4099 10.2537 41.4099 8.66106C41.4099 7.06358 42.7063 5.77201 44.2989 5.77201C45.8964 5.77201 47.188 7.06844 47.188 8.66106C47.1928 10.2585 45.8964 11.5501 44.2989 11.5501Z" fill="var(--fill-0, white)"/>
</g>
</svg>
