<svg preserveAspectRatio="none" width="100%" height="100%" overflow="visible" style="display: block;" viewBox="0 0 21.5068 21.5069" fill="none" xmlns="http://www.w3.org/2000/svg">
<g id="Vector">
<path fill-rule="evenodd" clip-rule="evenodd" d="M10.7534 19.5069C15.5878 19.5069 19.5068 15.5878 19.5068 10.7534C19.5068 5.91905 15.5878 2 10.7534 2C5.91903 2 2 5.91904 2 10.7534C2 15.5878 5.91903 19.5069 10.7534 19.5069ZM21.5068 10.7534C21.5068 16.6924 16.6923 21.5069 10.7534 21.5069C4.81446 21.5069 -5.19198e-07 16.6924 0 10.7534C5.19198e-07 4.81448 4.81446 -5.19201e-07 10.7534 0C16.6923 5.19201e-07 21.5068 4.81448 21.5068 10.7534Z" fill="var(--fill-0, #87898B)"/>
<path fill-rule="evenodd" clip-rule="evenodd" d="M10.605 14.7434C10.0527 14.7434 9.60501 14.2956 9.60501 13.7434V12.0162C9.60501 10.5875 10.7795 9.69308 11.6282 9.28974C12.3373 8.95275 12.7576 8.31159 12.7576 7.6349C12.7576 6.67864 11.8805 5.75355 10.605 5.75355C9.70104 5.75355 8.96945 6.23555 8.64427 6.85893C8.38884 7.3486 7.78482 7.53848 7.29516 7.28305C6.80549 7.02763 6.6156 6.4236 6.87103 5.93394C7.55942 4.61428 8.99684 3.75355 10.605 3.75355C12.8118 3.75355 14.7576 5.4085 14.7576 7.6349C14.7576 9.18342 13.798 10.4729 12.4867 11.0961C12.203 11.2309 11.9614 11.4051 11.8029 11.5861C11.6494 11.7614 11.605 11.9033 11.605 12.0162V13.7434C11.605 14.2956 11.1573 14.7434 10.605 14.7434Z" fill="var(--fill-0, #87898B)"/>
<path d="M10.6001 17.8772C9.97878 17.8772 9.47511 17.3735 9.47511 16.7522C9.47511 16.1309 9.97878 15.6272 10.6001 15.6272C11.2214 15.6272 11.7251 16.1309 11.7251 16.7522C11.7251 17.3735 11.2214 17.8772 10.6001 17.8772Z" fill="var(--fill-0, #87898B)"/>
</g>
</svg>
