<svg preserveAspectRatio="none" width="100%" height="100%" overflow="visible" style="display: block;" viewBox="0 0 29.7027 19.337" fill="none" xmlns="http://www.w3.org/2000/svg">
<g id="but_home_add">
<path id="Combined Shape" d="M22.7607 0C24.6871 0 26.249 1.56191 26.249 3.48828V15.8486C26.249 17.775 24.6871 19.3369 22.7607 19.3369H3.48828C1.56191 19.3369 0 17.775 0 15.8486V3.48828C0 1.56191 1.56191 0 3.48828 0H22.7607ZM15.0244 5.15332C14.5475 5.15332 14.1602 5.53984 14.1602 6.0166V8.97754H11.5703C11.0936 8.97754 10.7072 9.36421 10.707 9.84082C10.707 10.3176 11.0934 10.7041 11.5703 10.7041H14.1602V13.666C14.1602 14.1428 14.5475 14.5293 15.0244 14.5293C15.5011 14.5291 15.8877 14.1427 15.8877 13.666V10.7041H18.4775C18.9544 10.7041 19.3408 10.3176 19.3408 9.84082C19.3406 9.36421 18.9543 8.97754 18.4775 8.97754H15.8877V6.0166C15.8877 5.53996 15.5011 5.15352 15.0244 5.15332Z" fill="var(--fill-0, #17EEE8)"/>
<path id="Combined Shape_2" d="M26.2142 0C28.1406 0 29.7025 1.56191 29.7025 3.48828V15.8486C29.7025 17.775 28.1406 19.3369 26.2142 19.3369H7.28746C5.3611 19.3369 3.79918 17.775 3.79918 15.8486V3.48828C3.79918 1.56191 5.3611 0 7.28746 0H26.2142ZM15.0238 5.15332C14.547 5.15346 14.1605 5.53992 14.1605 6.0166V8.97754H11.5707C11.0939 8.97754 10.7066 9.36421 10.7064 9.84082C10.7064 10.3176 11.0938 10.7041 11.5707 10.7041H14.1605V13.666C14.1605 14.1427 14.547 14.5292 15.0238 14.5293C15.5007 14.5293 15.8871 14.1428 15.8871 13.666V10.7041H18.4779C18.9547 10.7041 19.3412 10.3176 19.3412 9.84082C19.341 9.36423 18.9546 8.97757 18.4779 8.97754H15.8871V6.0166C15.8871 5.53984 15.5007 5.15332 15.0238 5.15332Z" fill="var(--fill-0, #FE2C55)"/>
<path id="Combined Shape_3" d="M24.4876 0C26.414 0 27.9759 1.56191 27.9759 3.48828V15.8486C27.9759 17.775 26.414 19.3369 24.4876 19.3369H5.21518C3.28881 19.3369 1.7269 17.775 1.7269 15.8486V3.48828C1.7269 1.56191 3.28881 0 5.21518 0H24.4876ZM15.0238 5.52441C14.5472 5.52456 14.1607 5.91121 14.1605 6.3877V8.97754H11.5707C11.0939 8.97754 10.7066 9.36421 10.7064 9.84082C10.7064 10.3176 11.0938 10.7041 11.5707 10.7041H14.1605V13.2939C14.1605 13.7706 14.547 14.1571 15.0238 14.1572C15.5006 14.1572 15.8871 13.7707 15.8871 13.2939V10.7041H18.4779C18.9547 10.7041 19.3412 10.3176 19.3412 9.84082C19.341 9.36422 18.9546 8.97756 18.4779 8.97754H15.8871V6.3877C15.8868 5.91113 15.5005 5.52441 15.0238 5.52441Z" fill="var(--fill-0, white)"/>
</g>
</svg>
