<svg preserveAspectRatio="none" width="100%" height="100%" overflow="visible" style="display: block;" viewBox="0 0 6.45891 8.20723" fill="none" xmlns="http://www.w3.org/2000/svg">
<g id="chevron_up_double_fill">
<path d="M3.73229 0.20828L6.3756 2.85159C6.48668 2.96267 6.48668 3.14277 6.3756 3.25386L5.7722 3.85725C5.66112 3.96834 5.48102 3.96834 5.36994 3.85725L3.22946 1.71677L1.08897 3.85725C0.977892 3.96834 0.797792 3.96834 0.68671 3.85725L0.083312 3.25386C-0.0277705 3.14277 -0.0277707 2.96267 0.0833117 2.85159L2.72662 0.20828C3.00433 -0.0694265 3.45458 -0.0694265 3.73229 0.20828Z" fill="var(--fill-0, white)" fill-opacity="0.75"/>
<path d="M3.73229 4.47495L6.3756 7.11826C6.48668 7.22934 6.48668 7.40944 6.3756 7.52052L5.7722 8.12392C5.66112 8.235 5.48102 8.235 5.36994 8.12392L3.22946 5.98344L1.08897 8.12392C0.977892 8.235 0.797792 8.235 0.68671 8.12392L0.083312 7.52052C-0.0277705 7.40944 -0.0277702 7.22934 0.0833122 7.11826L2.72662 4.47495C3.00433 4.19724 3.45458 4.19724 3.73229 4.47495Z" fill="var(--fill-0, white)" fill-opacity="0.75"/>
</g>
</svg>
