<svg preserveAspectRatio="none" width="100%" height="100%" overflow="visible" style="display: block;" viewBox="0 0 12.3077 12.3077" fill="none" xmlns="http://www.w3.org/2000/svg">
<g id="Path">
<path d="M8.92308 0C8.58321 0 8.30769 0.275517 8.30769 0.615385C8.30769 0.955252 8.58321 1.23077 8.92308 1.23077H11.0769V3.38462C11.0769 3.72448 11.3524 4 11.6923 4C12.0322 4 12.3077 3.72448 12.3077 3.38462V0.615385C12.3077 0.275517 12.0322 0 11.6923 0H8.92308Z" fill="var(--fill-0, #121212)"/>
<path d="M12.3077 8.92308C12.3077 8.58321 12.0322 8.30769 11.6923 8.30769C11.3524 8.30769 11.0769 8.58321 11.0769 8.92308V11.0769H8.92308C8.58321 11.0769 8.30769 11.3524 8.30769 11.6923C8.30769 12.0322 8.58321 12.3077 8.92308 12.3077H11.6923C12.0322 12.3077 12.3077 12.0322 12.3077 11.6923V8.92308Z" fill="var(--fill-0, #121212)"/>
<path d="M0.615385 8.30769C0.955252 8.30769 1.23077 8.58321 1.23077 8.92308V11.0769H3.38462C3.72448 11.0769 4 11.3524 4 11.6923C4 12.0322 3.72448 12.3077 3.38462 12.3077H0.615385C0.275517 12.3077 0 12.0322 0 11.6923V8.92308C0 8.58321 0.275517 8.30769 0.615385 8.30769Z" fill="var(--fill-0, #121212)"/>
<path d="M0.615385 0C0.275517 0 0 0.275517 0 0.615385V3.38462C0 3.72448 0.275517 4 0.615385 4C0.955252 4 1.23077 3.72448 1.23077 3.38462V1.23077H3.38462C3.72448 1.23077 4 0.955252 4 0.615385C4 0.275517 3.72448 0 3.38462 0H0.615385Z" fill="var(--fill-0, #121212)"/>
</g>
</svg>
