<svg preserveAspectRatio="none" width="100%" height="100%" overflow="visible" style="display: block;" viewBox="0 0 26.3877 24.3296" fill="none" xmlns="http://www.w3.org/2000/svg">
<g id="Group 6">
<g id="Combined Shape" opacity="0.9" filter="url(#filter0_d_246_13310)">
<path fill-rule="evenodd" clip-rule="evenodd" d="M18.3607 0C16.3464 0 14.5156 0.839136 13.4005 2.42759C11.8703 0.839136 10.0377 0 8.02696 0C4.18891 0 1 3.32546 1 7.28277C1 7.55222 1.01273 7.67471 1 7.68737C1.02 8.59977 1.45091 10.244 1.79629 10.9346C4.12097 15.9656 11.4669 21.2937 11.8123 21.639C12.1577 21.9843 12.5031 22.3296 13.1938 22.3296C13.8846 22.3296 14.23 21.9843 14.5754 21.639C14.9207 21.2937 21.3406 16.4445 24.1476 11.7334C24.2696 11.4115 24.3496 11.2525 24.561 10.9242C24.695 10.5852 24.8295 10.278 24.9743 10.115C25.2295 9.20673 25.3731 8.51933 25.3877 7.68737C25.3768 7.66374 25.3877 7.55039 25.3877 7.28277C25.3877 3.32729 22.197 0 18.3607 0Z" fill="var(--fill-0, white)"/>
</g>
<path id="Combined Shape_2" opacity="0.03" fill-rule="evenodd" clip-rule="evenodd" d="M1.79629 10.9242C4.12097 15.9551 11.8179 21.7123 12.1605 21.8483C12.5031 21.9843 12.8485 22.3296 13.1938 22.3296C13.5392 22.3296 13.8846 22.3296 14.23 21.9843C14.5754 21.639 21.3406 16.4445 24.1476 11.7333C24.2696 11.4115 24.3496 11.2525 24.561 10.9242C24.695 10.5852 24.8295 10.278 24.9743 10.115C25.2295 9.20673 25.3731 8.51933 25.3877 7.68737C25.3768 7.66374 25.3877 7.55039 25.3877 7.28277C24.1476 9.89871 16.7864 18.5313 13.1938 18.8766C9.60134 19.2219 2.17924 11.6845 1.79629 10.9242Z" fill="var(--fill-0, black)"/>
</g>
<defs>
<filter id="filter0_d_246_13310" x="0" y="0" width="26.3877" height="24.3296" filterUnits="userSpaceOnUse" color-interpolation-filters="sRGB">
<feFlood flood-opacity="0" result="BackgroundImageFix"/>
<feColorMatrix in="SourceAlpha" type="matrix" values="0 0 0 0 0 0 0 0 0 0 0 0 0 0 0 0 0 0 127 0" result="hardAlpha"/>
<feOffset dy="1"/>
<feGaussianBlur stdDeviation="0.5"/>
<feColorMatrix type="matrix" values="0 0 0 0 0 0 0 0 0 0 0 0 0 0 0 0 0 0 0.15 0"/>
<feBlend mode="normal" in2="BackgroundImageFix" result="effect1_dropShadow_246_13310"/>
<feBlend mode="normal" in="SourceGraphic" in2="effect1_dropShadow_246_13310" result="shape"/>
</filter>
</defs>
</svg>
