<svg preserveAspectRatio="none" width="100%" height="100%" overflow="visible" style="display: block;" viewBox="0 0 19.6564 15.1934" fill="none" xmlns="http://www.w3.org/2000/svg">
<g id="icon_explore_up" opacity="0.6">
<path id="Oval 10" d="M2.38242 9.25076C1.10734 10.0376 0.422627 10.8583 0.613246 11.6227C1.03585 13.3173 5.38729 13.237 10.4641 11.9715C15.541 10.706 19.4208 8.73441 18.9982 7.03982C18.8053 6.26621 17.7935 5.86249 16.2678 5.77257" stroke="var(--stroke-0, white)" stroke-width="1.16267" stroke-linecap="round"/>
<path id="Oval 5" d="M9.4927 0.581055C13.3594 0.581055 16.4956 3.72131 16.4956 7.59668C16.4956 11.4721 13.3594 14.6123 9.4927 14.6123C5.62612 14.6122 2.48977 11.472 2.48977 7.59668C2.48977 3.72139 5.62612 0.581178 9.4927 0.581055Z" stroke="var(--stroke-0, white)" stroke-width="1.16267"/>
<path id="Oval 7 Copy" fill-rule="evenodd" clip-rule="evenodd" d="M8.77952 5.18278C9.25639 5.18278 9.64297 4.79556 9.64297 4.31791C9.64297 3.84025 9.25639 3.45304 8.77952 3.45304C8.30265 3.45304 7.91607 3.84025 7.91607 4.31791C7.91607 4.79556 8.30265 5.18278 8.77952 5.18278Z" fill="var(--fill-0, white)"/>
<path id="Oval 7 Copy 2" fill-rule="evenodd" clip-rule="evenodd" d="M6.70724 8.63259C7.37485 8.63259 7.91607 8.0915 7.91607 7.42403C7.91607 6.75656 7.37485 6.21547 6.70724 6.21547C6.03962 6.21547 5.4984 6.75656 5.4984 7.42403C5.4984 8.0915 6.03962 8.63259 6.70724 8.63259Z" fill="var(--fill-0, white)"/>
</g>
</svg>
