<svg preserveAspectRatio="none" width="100%" height="100%" overflow="visible" style="display: block;" viewBox="0 0 16.014 16.0045" fill="none" xmlns="http://www.w3.org/2000/svg">
<g id="icon_message_up" opacity="0.6">
<path id="Shape" fill-rule="evenodd" clip-rule="evenodd" d="M8.00701 0.581333C3.9072 0.581333 0.581333 3.70647 0.581333 7.57066C0.581333 9.56169 1.47315 11.3612 2.87727 12.6407C2.94739 12.7046 2.77766 14.4544 2.90316 14.9823C2.98683 15.3202 3.34243 15.5102 3.67711 15.3835C4.17913 15.2146 4.9949 14.9401 5.476 14.8345C6.20811 14.6656 8.00701 14.56 8.00701 14.56C12.1068 14.56 15.4327 11.4349 15.4327 7.57066C15.4327 3.70647 12.1068 0.581333 8.00701 0.581333Z" stroke="var(--stroke-0, white)" stroke-width="1.16267"/>
<path id="Path 5" d="M6.28048 10.0772C6.28048 10.0772 7.662 10.7678 9.73428 10.0772" stroke="var(--stroke-0, white)" stroke-width="1.16267" stroke-linecap="round"/>
</g>
</svg>
