<svg preserveAspectRatio="none" width="100%" height="100%" overflow="visible" style="display: block;" viewBox="0 0 6.91804 7.62799" fill="none" xmlns="http://www.w3.org/2000/svg">
<path id="music_note_s_alt" d="M6.91804 0.186996L6.91775 5.75833C6.91775 6.48114 6.3318 7.06709 5.60899 7.06709C4.88618 7.06709 4.30022 6.48114 4.30022 5.75833C4.30022 5.03552 4.88618 4.44956 5.60899 4.44956H6.28236V1.16608L2.61782 1.64285L2.61753 6.31922C2.61753 7.04203 2.03157 7.62799 1.30876 7.62799C0.585953 7.62799 0 7.04203 0 6.31922C0 5.59641 0.585953 5.01046 1.30876 5.01046H1.98213V0.782036C1.98213 0.688125 2.0518 0.608787 2.14492 0.596641L6.70689 0.00160022C6.81881 -0.0129972 6.91804 0.0741348 6.91804 0.186996Z" fill="var(--fill-0, white)"/>
</svg>
