<svg preserveAspectRatio="none" width="100%" height="100%" overflow="visible" style="display: block;" viewBox="0 0 5.1324 4.90571" fill="none" xmlns="http://www.w3.org/2000/svg">
<path id="Star 1" d="M2.34202 0.139359C2.43372 -0.0464527 2.69868 -0.046453 2.79039 0.139358L3.38971 1.35373C3.42613 1.42751 3.49652 1.47865 3.57795 1.49049L4.91808 1.68522C5.12314 1.71502 5.20501 1.96701 5.05663 2.11164L4.0869 3.0569C4.02798 3.11433 4.0011 3.19708 4.015 3.27818L4.24393 4.6129C4.27895 4.81712 4.0646 4.97286 3.88119 4.87644L2.68254 4.24627C2.60971 4.20798 2.5227 4.20798 2.44987 4.24627L1.25121 4.87644C1.06781 4.97286 0.853449 4.81712 0.888477 4.6129L1.1174 3.27818C1.13131 3.19708 1.10442 3.11433 1.0455 3.0569L0.0757703 2.11164C-0.0726089 1.96701 0.00926834 1.71502 0.214323 1.68522L1.55446 1.49049C1.63588 1.47865 1.70628 1.42751 1.74269 1.35373L2.34202 0.139359Z" fill="var(--fill-0, #FACE15)"/>
</svg>
