<svg preserveAspectRatio="none" width="100%" height="100%" overflow="visible" style="display: block;" viewBox="0 0 18.4144 19.9999" fill="none" xmlns="http://www.w3.org/2000/svg">
<g id="Vector">
<path fill-rule="evenodd" clip-rule="evenodd" d="M0.669414 6.15287C0.720933 5.22552 1.48793 4.49994 2.41672 4.49994H15.9977C16.9265 4.49994 17.6935 5.22552 17.745 6.15287L18.4116 18.1529C18.4674 19.156 17.669 19.9999 16.6643 19.9999H1.75005C0.745405 19.9999 -0.0529776 19.156 0.00274993 18.1529L0.669414 6.15287ZM2.65322 6.49994L2.01433 17.9999H16.4001L15.7612 6.49994H2.65322Z" fill="var(--fill-0, white)"/>
<path fill-rule="evenodd" clip-rule="evenodd" d="M9.20722 2C7.27424 2 5.70724 3.567 5.70724 5.5H3.70724C3.70724 2.46244 6.16966 0 9.20722 0C12.2448 0 14.7072 2.46244 14.7072 5.5H12.7072C12.7072 3.567 11.1402 2 9.20722 2Z" fill="var(--fill-0, white)"/>
<path fill-rule="evenodd" clip-rule="evenodd" d="M9.20721 11.2499C11.1402 11.2499 12.7072 9.68295 12.7072 7.74995H14.7072C14.7072 10.7875 12.2448 13.2499 9.20721 13.2499C6.16965 13.2499 3.70723 10.7875 3.70723 7.74995H5.70723C5.70723 9.68295 7.27423 11.2499 9.20721 11.2499Z" fill="var(--fill-0, white)"/>
</g>
</svg>
