<svg preserveAspectRatio="none" width="100%" height="100%" overflow="visible" style="display: block;" viewBox="0 0 57.5996 52.4294" fill="none" xmlns="http://www.w3.org/2000/svg">
<g id="Vector">
<path d="M44.743 6.46094H9.36527C7.78087 6.46094 6.435 7.62038 6.20051 9.18734L0 50.6209C0 51.6197 0.809697 52.4294 1.80851 52.4294H47.943C48.9418 52.4294 49.7515 51.6197 49.7515 50.6209L44.743 6.46094Z" fill="#5CD6D2"/>
<path d="M55.7348 0C56.7647 0 57.5996 0.84704 57.5996 1.89192V21.1103C57.5996 21.6125 57.4028 22.094 57.0527 22.4489L40.0369 39.6926C38.9766 40.769 37.538 41.3739 36.0379 41.3739C34.5374 41.3739 33.0985 40.7687 32.0381 39.6917L18.4565 25.9129L18.4526 25.9089C16.2606 23.6718 16.2606 20.0588 18.4526 17.8217L18.4565 17.8177L35.4729 0.55413C35.8226 0.199326 36.297 0 36.7915 0H55.7348Z" fill="#FF949B"/>
<path d="M29.6415 6.46016L44.743 6.46094L47.6384 31.9893L39.886 39.8719C38.8257 40.9484 37.5282 41.3738 36.0281 41.3738C34.5277 41.3738 33.0887 40.7686 32.0283 39.6916L18.4467 25.9127L18.4428 25.9087C16.2508 23.6716 16.2508 20.0586 18.4428 17.8215L18.4467 17.8176L29.6415 6.46016Z" fill="#223E70"/>
<path d="M41.7371 9.95276C41.7371 13.29 44.4425 15.9954 47.7797 15.9954C51.1169 15.9954 53.8223 13.29 53.8223 9.95276C53.8223 6.61552 51.1169 3.91016 47.7797 3.91016C44.4425 3.91016 41.7371 6.61552 41.7371 9.95276Z" fill="var(--fill-0, #FFEFC7)"/>
</g>
</svg>
