<svg preserveAspectRatio="none" width="100%" height="100%" overflow="visible" style="display: block;" viewBox="0 0 7.125 7.125" fill="none" xmlns="http://www.w3.org/2000/svg">
<g id="Vector">
<path fill-rule="evenodd" clip-rule="evenodd" d="M0.146447 0.146447C0.341709 -0.0488155 0.658292 -0.0488155 0.853554 0.146447L6.97855 6.27145C7.17382 6.46671 7.17382 6.78329 6.97855 6.97855C6.78329 7.17382 6.46671 7.17382 6.27145 6.97855L0.146447 0.853553C-0.0488152 0.658291 -0.0488152 0.341709 0.146447 0.146447Z" fill="var(--fill-0, #87898B)"/>
<path fill-rule="evenodd" clip-rule="evenodd" d="M0.146447 6.97855C-0.0488155 6.78329 -0.0488155 6.46671 0.146447 6.27145L6.27145 0.146447C6.46671 -0.0488156 6.78329 -0.0488156 6.97855 0.146447C7.17381 0.341709 7.17381 0.658291 6.97855 0.853553L0.853553 6.97855C0.658291 7.17382 0.341709 7.17382 0.146447 6.97855Z" fill="var(--fill-0, #87898B)"/>
</g>
</svg>
