<svg preserveAspectRatio="none" width="100%" height="100%" overflow="visible" style="display: block;" viewBox="0 0 11 12" fill="none" xmlns="http://www.w3.org/2000/svg">
<g id="Union">
<path fill-rule="evenodd" clip-rule="evenodd" d="M10.3467 0.67235C11.2178 1.56882 11.2178 3.0223 10.3467 3.91876L4.31454 10.1271C4.25241 10.191 4.16844 10.2274 4.08059 10.2284L1.96304 10.2533C1.46578 10.2592 1.05966 9.84586 1.05974 9.33403L1.06009 7.12054C1.0601 7.02867 1.09559 6.94057 1.15875 6.87564L7.1934 0.671458C8.06455 -0.224168 9.47607 -0.223768 10.3467 0.67235ZM2.08073 7.4126L2.08045 9.20136L3.79004 9.18128L8.60826 4.22235L6.89697 2.46106L2.08073 7.4126ZM9.625 3.17592L9.33 3.47953L7.6191 1.71864L7.91474 1.41469C8.38722 0.928938 9.15278 0.929154 9.62501 1.41518C10.0974 1.9014 10.0974 2.68971 9.625 3.17592Z" fill="var(--fill-0, #87898B)"/>
<path d="M0.510345 10.9495C0.228489 10.9495 0 11.1846 0 11.4747C0 11.7648 0.228489 12 0.510345 12H10.3345C10.6163 12 10.8448 11.7648 10.8448 11.4747C10.8448 11.1846 10.6163 10.9495 10.3345 10.9495H0.510345Z" fill="var(--fill-0, #87898B)"/>
</g>
</svg>
