<svg preserveAspectRatio="none" width="100%" height="100%" overflow="visible" style="display: block;" viewBox="0 0 4.66667 7.875" fill="none" xmlns="http://www.w3.org/2000/svg">
<g id="Path_02">
<path d="M2.33333 0C1.04467 0 0 1.04467 0 2.33333C0 2.6555 0.261167 2.91667 0.583333 2.91667C0.905499 2.91667 1.16667 2.6555 1.16667 2.33333C1.16667 1.689 1.689 1.16667 2.33333 1.16667C2.97767 1.16667 3.5 1.689 3.5 2.33333C3.5 2.97767 2.97767 3.5 2.33333 3.5C2.01117 3.5 1.75 3.76117 1.75 4.08333V5.25C1.75 5.57217 2.01117 5.83333 2.33333 5.83333C2.6555 5.83333 2.91667 5.57217 2.91667 5.25V4.59316C3.92305 4.33413 4.66667 3.42057 4.66667 2.33333C4.66667 1.04467 3.622 0 2.33333 0Z" fill="var(--fill-0, white)"/>
<path d="M3.0625 7.14583C3.0625 7.54854 2.73604 7.875 2.33333 7.875C1.93063 7.875 1.60417 7.54854 1.60417 7.14583C1.60417 6.74313 1.93063 6.41667 2.33333 6.41667C2.73604 6.41667 3.0625 6.74313 3.0625 7.14583Z" fill="var(--fill-0, white)"/>
</g>
</svg>
