<svg preserveAspectRatio="none" width="100%" height="100%" overflow="visible" style="display: block;" viewBox="0 0 13.3333 14" fill="none" xmlns="http://www.w3.org/2000/svg">
<g id="Path">
<path fill-rule="evenodd" clip-rule="evenodd" d="M0 3C0 2.63181 0.298477 2.33333 0.666667 2.33333H12.6667C13.0349 2.33333 13.3333 2.63181 13.3333 3C13.3333 3.36819 13.0349 3.66667 12.6667 3.66667H0.666667C0.298477 3.66667 0 3.36819 0 3Z" fill="#6D6E71"/>
<path fill-rule="evenodd" clip-rule="evenodd" d="M4.40257 0.370822C4.51504 0.143704 4.74656 0 5 0H8.33333C8.5887 0 8.82163 0.145876 8.93312 0.375625L10.0654 2.70896C10.1656 2.91556 10.1525 3.15922 10.0306 3.35385C9.9087 3.54847 9.69522 3.66667 9.46557 3.66667H3.84454C3.61394 3.66667 3.39972 3.5475 3.27811 3.35158C3.15651 3.15566 3.14478 2.9108 3.24711 2.70416L4.40257 0.370822ZM5.4138 1.33333L4.9186 2.33333H8.40107L7.91582 1.33333H5.4138Z" fill="#6D6E71"/>
<path fill-rule="evenodd" clip-rule="evenodd" d="M1.66667 3C1.66667 2.63181 1.96514 2.33333 2.33333 2.33333H11C11.3682 2.33333 11.6667 2.63181 11.6667 3V13.3333C11.6667 13.7015 11.3682 14 11 14H2.33333C1.96514 14 1.66667 13.7015 1.66667 13.3333V3ZM3 3.66667V12.6667H10.3333V3.66667H3Z" fill="#6D6E71"/>
<path fill-rule="evenodd" clip-rule="evenodd" d="M5.33333 5.33333C5.70152 5.33333 6 5.63181 6 6V10C6 10.3682 5.70152 10.6667 5.33333 10.6667C4.96514 10.6667 4.66667 10.3682 4.66667 10V6C4.66667 5.63181 4.96514 5.33333 5.33333 5.33333Z" fill="#6D6E71"/>
<path fill-rule="evenodd" clip-rule="evenodd" d="M8 5.33333C8.36819 5.33333 8.66667 5.63181 8.66667 6V10C8.66667 10.3682 8.36819 10.6667 8 10.6667C7.63181 10.6667 7.33333 10.3682 7.33333 10V6C7.33333 5.63181 7.63181 5.33333 8 5.33333Z" fill="#6D6E71"/>
</g>
</svg>
