<svg preserveAspectRatio="none" width="100%" height="100%" overflow="visible" style="display: block;" viewBox="0 0 14 12" fill="none" xmlns="http://www.w3.org/2000/svg">
<g id="Path">
<path fill-rule="evenodd" clip-rule="evenodd" d="M2.66667 3.5C2.66667 2.85567 3.189 2.33333 3.83333 2.33333C4.47767 2.33333 5 2.85567 5 3.5C5 4.14433 4.47767 4.66667 3.83333 4.66667C3.189 4.66667 2.66667 4.14433 2.66667 3.5ZM3.83333 3.66667C3.92538 3.66667 4 3.59205 4 3.5C4 3.40795 3.92538 3.33333 3.83333 3.33333C3.74129 3.33333 3.66667 3.40795 3.66667 3.5C3.66667 3.59205 3.74129 3.66667 3.83333 3.66667Z" fill="var(--fill-0, #6D6E71)"/>
<path fill-rule="evenodd" clip-rule="evenodd" d="M0 1.33333C0 0.596954 0.596954 0 1.33333 0H12.6667C13.403 0 14 0.596954 14 1.33333V10.6667C14 10.7587 13.9907 10.8486 13.9729 10.9354C13.9456 11.069 13.8982 11.1954 13.8341 11.3112C13.6069 11.7219 13.1693 12 12.6667 12H1.33333C0.596954 12 0 11.4031 0 10.6667V1.33333ZM1.33333 9.60949V10.6667H12.6667V9.6628L7.76253 5.91258L6.17284 7.76721C5.93894 8.04009 5.53085 8.07845 5.2502 7.85393L4.04948 6.89335L1.33333 9.60949ZM12.6667 7.9843L8.07163 4.47045C7.79063 4.25556 7.39071 4.29757 7.1605 4.56616L5.5799 6.41019L4.41646 5.47944C4.1512 5.26723 3.7688 5.28841 3.5286 5.52861L1.33333 7.72388V1.33333H12.6667V7.9843Z" fill="var(--fill-0, #6D6E71)"/>
</g>
</svg>
